<ttFont>
          <CharString index="0">
            387 44 hlineto
            183 -79 72 -148 -168 -83 -78 callgsubr
            82 -86 169 127 100 63 128 vhcurveto
            -86 hlineto
            -85 -64 -33 -77 -105 -49 57 121 -6 vhcurveto
            295 73 rmoveto
            -293 hlineto
            109 11 48 44 99 hhcurveto
            81 54 -42 -111 hvcurveto
            return
          </CharString>
          <CharString index="1">
            159 84 86 189 189 -84 86 -159 -29 callsubr
            73 vmoveto
            -106 -46 59 143 143 46 59 106 106 46 -59 -143 -143 -46 -59 -106 hvcurveto
            return
          </CharString>
          <CharString index="2">
            rmoveto
            90 hlineto
            -105 135 rlineto
            -84 hlineto
            -106 -135 rlineto
            90 hlineto
            return
          </CharString>
          <CharString index="3">
            57 -40 vlineto
            -18 -17 10 25 hvcurveto
            285 vlineto
            99 -67 58 -133 -125 -88 -50 -96 -9 0 -7 1 -6 vhcurveto
            85 12 hlineto
            40 25 43 94 97 23 -39 -56 vhcurveto
            -58 vlineto
            return
          </CharString>
          <CharString index="4">
            -70 callsubr
            hintmask 10111011
            45 callgsubr
            23 -39 -56 vhcurveto
            -58 vlineto
            hintmask 10111101
            -102 callsubr
            hintmask 01111101
            -62 callgsubr
            hintmask 10111101
            -87 callgsubr
          </CharString>
          <CharString index="5">
            -202 -148 -31 -145 -127 108 -21 66 75 65 30 49 36 hvcurveto
            7 hlineto
            return
          </CharString>
          <CharString index="6">
            -163 235 rmoveto
            -38 vlineto
            -94 -79 -46 -74 -66 -39 20 60 82 104 16 154 vhcurveto
            return
          </CharString>
          <CharString index="7">
            rmoveto
            84 hlineto
            105 135 rlineto
            -90 hlineto
            -57 -79 -58 79 rlineto
            -90 hlineto
            return
          </CharString>
          <CharString index="8">
            -131 -70 -64 -155 -158 -83 75 199 199 84 75 163 129 88 -51 -114 vhcurveto
            97 hlineto
            166 -133 80 -181 -228 -118 -30 callsubr
            117 -117 223 99 85 26 62 55 vhcurveto
            return
          </CharString>
          <CharString index="9">
            rmoveto
            -61 hlineto
            -57 callsubr
            -98 callgsubr
            80 -90 callsubr
            return
          </CharString>
          <CharString index="10">
            rmoveto
            75 hlineto
            -96 callgsubr
            return
          </CharString>
          <CharString index="11">
            150 73 83 162 hvcurveto
            463 -88 -271 vlineto
            -111 -69 -63 -86 -54 -40 25 87 vhcurveto
            333 -88 -339 vlineto
            -130 68 -49 103 71 53 23 49 35 vhcurveto
            8 -21 hlineto
            -115 -1 -49 -54 -89 hhcurveto
            -59 -52 24 61 hvcurveto
            -86 -10 hlineto
            return
          </CharString>
          <CharString index="12">
            95 283 252 hlineto
            149 -283 rlineto
            106 hlineto
            -158 297 rlineto
            79 29 47 71 94 vvcurveto
            115 -72 80 -141 vhcurveto
            -357 hlineto
            352 -320 rmoveto
            -257 237 257 hlineto
            81 41 -42 -71 -78 -48 -46 -74 hvcurveto
            return
          </CharString>
          <CharString index="13">
            rmoveto
            87 95 -87 hlineto
            return
          </CharString>
          <CharString index="14">
            rmoveto
            93 12 hlineto
            137 -117 56 -146 -147 -120 -58 -126 vhcurveto
            hintmask 11101010
            -248 455 93 -176 vvcurveto
            -74 -69 -40 -125 vhcurveto
            hintmask 11110010
            -108 -77 40 84 hvcurveto
            6 2 14 1 vvcurveto
            -94 hlineto
            -3 -1 -10 -7 vvcurveto
            -151 130 -55 153 163 121 56 154 vhcurveto
            hintmask 11101010
            244 -454 -85 164 vvcurveto
            66 73 30 101 vhcurveto
            hintmask 11101100
            96 71 -39 -70 hvcurveto
            endchar
          </CharString>
          <CharString index="15">
            -94 callsubr
            -75 callgsubr
            return
          </CharString>
          <CharString index="16">
            95 284 hlineto
            270 402 rlineto
            -109 hlineto
            -203 -314 rlineto
            -5 hlineto
            -204 314 rlineto
            -115 hlineto
            271 -402 rlineto
            return
          </CharString>
          <CharString index="17">
            -868 rmoveto
            -106 callgsubr
            return
          </CharString>
          <CharString index="18">
            -236 -341 rmoveto
            219 hlineto
            38 26 -24 -41 -40 -33 -26 -44 hvcurveto
            -206 hlineto
            -38 -25 26 40 41 25 24 38 hvcurveto
            endchar
          </CharString>
          <CharString index="19">
            -86 132 6 callsubr
            -1 -3 rlineto
            return
          </CharString>
          <CharString index="20">
            rmoveto
            75 hlineto
            -88 callsubr
            return
          </CharString>
          <CharString index="21">
            -348 -65 callgsubr
            hintmask 11101010
            -49 callsubr
            hintmask 11110010
            -76 callsubr
            hintmask 11101010
            -49 callgsubr
            hintmask 11110100
            88 28 -40 -41 hvcurveto
            endchar
          </CharString>
          <CharString index="22">
            -6 17 28 -6 24 hhcurveto
            85 25 61 60 hvcurveto
            587 -88 -591 vlineto
            -31 -16 -17 -31 vhcurveto
            endchar
          </CharString>
          <CharString index="23">
            591 -97 callsubr
            return
          </CharString>
          <CharString index="24">
            -48 callsubr
            -82 callgsubr
            return
          </CharString>
          <CharString index="25">
            rmoveto
            -61 hlineto
            hintmask 1011100101000000
            -57 callsubr
            hintmask 1011010101000000
            -98 callgsubr
            hintmask 1011010011000000
            126 -719 -46 callgsubr
            hintmask 1011010011000000
            -62 callsubr
            hintmask 1011010101000000
            -101 callsubr
            endchar
          </CharString>
          <CharString index="26">
            -25 callgsubr
            -13 -49 -41 -27 -67 -11 rrcurveto
            32 -39 -54 15 -67 hhcurveto
            -29 callsubr
            return
          </CharString>
          <CharString index="27">
            733 -105 callsubr
            -29 callgsubr
            return
          </CharString>
          <CharString index="28">
            -83 -36 -42 -66 -65 -36 37 72 vhcurveto
            30 -95 -25 vlineto
            -128 72 -67 124 125 72 69 142 vhcurveto
            487 vlineto
            endchar
          </CharString>
          <CharString index="29">
            -12 -44 -34 -27 -56 -12 rrcurveto
            41 -56 -75 20 -89 hhcurveto
            -47 callsubr
            return
          </CharString>
          <CharString index="30">
            244 543 rmoveto
            -69 -42 -40 -84 -84 -42 40 69 69 42 40 84 84 42 -40 -69 vhcurveto
            return
          </CharString>
          <CharString index="31">
            -74 -59 28 66 hvcurveto
            10 -87 vlineto
            -2 -1 -6 -14 vvcurveto
            -78 62 -76 154 123 91 49 113 vhcurveto
            return
          </CharString>
          <CharString index="32">
            -12 -67 callsubr
            return
          </CharString>
          <CharString index="33">
            -90 callsubr
            endchar
          </CharString>
          <CharString index="34">
            29 16 21 23 37 vvcurveto
            65 -49 37 -73 -71 -51 -40 -62 vhcurveto
            -19 63 14 vlineto
            36 26 16 34 31 27 -14 -36 -33 -29 -16 -32 vhcurveto
            return
          </CharString>
          <CharString index="35">
            23 2 11 8 15 hhcurveto
            return
          </CharString>
          <CharString index="36">
            rmoveto
            -159 520 159 hlineto
            152 93 -67 -193 -193 -93 -67 -152 hvcurveto
            return
          </CharString>
          <CharString index="37">
            -74 callgsubr
            vhcurveto
            return
          </CharString>
          <CharString index="38">
            rmoveto
            88 311 hlineto
            99 62 35 67 vhcurveto
            37 hlineto
            hintmask 10011100
            85 vlineto
            hintmask 11001100
            0 -19 8 -28 -72 -35 -47 -44 -17 vhcurveto
            -6 hlineto
            hintmask 10101100
            -10 79 rlineto
            -67 hlineto
            endchar
          </CharString>
          <CharString index="39">
            rmoveto
            75 hlineto
            48 68 rlineto
            -21 37 45 -10 55 hhcurveto
            159 84 86 189 92 -20 67 -39 45 hvcurveto
            77 108 rlineto
            -74 hlineto
            -49 -69 rlineto
            21 -37 -46 11 -55 hhcurveto
            -159 -84 -86 -189 -93 20 -68 39 -45 hvcurveto
            275 384 rmoveto
            -221 -309 rlineto
            -15 31 -7 44 56 vvcurveto
            143 46 59 106 38 30 -8 -16 23 vhcurveto
            -181 -357 rmoveto
            220 308 rlineto
            15 -31 7 -43 -55 vvcurveto
            -143 -46 -59 -106 -38 -29 7 16 -23 vhcurveto
            endchar
          </CharString>
          <CharString index="40">
            73 -69 69 -47 callgsubr
            return
          </CharString>
          <CharString index="41">
            93 -75 95 hintmask 00000000
            hintmask 11101110
            503 493 rmoveto
            93 12 hlineto
            137 -117 56 -146 -147 -120 -58 -126 vhcurveto
            hintmask 11101101
            -248 455 93 -176 vvcurveto
            -74 -69 -40 -125 vhcurveto
            hintmask 11110101
            -108 -77 40 84 hvcurveto
            6 2 14 1 vvcurveto
            -94 hlineto
            -3 -1 -10 -7 vvcurveto
            -151 130 -55 153 163 121 56 154 vhcurveto
            hintmask 11101101
            244 -454 -85 164 vvcurveto
            66 73 30 101 vhcurveto
            hintmask 11101110
            96 71 -39 -70 hvcurveto
            -213 return
          </CharString>
          <CharString index="42">
            rmoveto
            -100 -39 52 150 150 39 52 100 97 39 -73 -129 -130 -39 -72 -97 hvcurveto
            return
          </CharString>
          <CharString index="43">
            97 66 57 74 65 44 -23 -89 vhcurveto
            return
          </CharString>
          <CharString index="44">
            -21 183 83 338 return
          </CharString>
          <CharString index="45">
            33 24 7 5 11 hvcurveto
            return
          </CharString>
          <CharString index="46">
            -12 73 -40 -7 callsubr
            -108 108 -23 callgsubr
            -3 120 hintmask 00000000
            hintmask 10101101
            486 723 -25 callgsubr
            hintmask 10101110
            -14 -53 -46 -27 -75 -9 rrcurveto
            -3 -311 hlineto
            -104 callgsubr
            hintmask 01101110
            34 callsubr
            hintmask 10101101
            15 callsubr
            return
          </CharString>
          <CharString index="47">
            33 callsubr
            94 108 hstemhm
            79 95 374 95 -1 120 hintmask 00000000
            hintmask 10111010
            642 868 -25 callgsubr
            hintmask 10111100
            -10 -35 -24 -24 -37 -15 rrcurveto
            -76 -438 hlineto
            -105 callgsubr
            hintmask 11011100
            382 vlineto
            hintmask 11011010
            16 callgsubr
            return
          </CharString>
          <CharString index="48">
            -50 -43 31 -56 hhcurveto
            return
          </CharString>
          <CharString index="49">
            50 43 -31 56 hhcurveto
            return
          </CharString>
          <CharString index="50">
            -22 -3 -18 -31 -64 hhcurveto
            return
          </CharString>
          <CharString index="51">
            94 123 rlineto
            -84 hlineto
            -63 -83 rlineto
            31 -53 -66 15 -77 hhcurveto
            -214 -128 -117 -238 -121 33 -90 61 -59 hvcurveto
            391 510 rmoveto
            -335 -436 rlineto
            -34 44 -18 63 89 vvcurveto
            198 93 76 151 56 48 -11 -23 39 vhcurveto
            -284 -481 rmoveto
            334 436 rlineto
            33 -44 19 -63 -88 vvcurveto
            -198 -93 -76 -152 -56 -47 10 23 -38 vhcurveto
            endchar
          </CharString>
          <CharString index="52">
            -41 -23 19 36 hvcurveto
            15 -63 -13 vlineto
            -69 47 -43 84 75 53 41 65 42 -22 28 -36 16 vhcurveto
            return
          </CharString>
          <CharString index="53">
            rmoveto
            212 hlineto
            121 45 81 71 67 -47 61 -87 hvcurveto
            return
          </CharString>
          <CharString index="54">
            rmoveto
            305 72 -305 hlineto
            return
          </CharString>
          <CharString index="55">
            773 -92 callsubr
            return
          </CharString>
          <CharString index="56">
            -40 callgsubr
            239 88 return
          </CharString>
          <CharString index="57">
            81 548 81 return
          </CharString>
          <CharString index="58">
            -189 324 74 -135 vvcurveto
            -51 -53 -27 -65 vhcurveto
            return
          </CharString>
          <CharString index="59">
            -58 callgsubr
            -59 callsubr
            return
          </CharString>
          <CharString index="60">
            -214 -128 -30 callsubr
            128 -117 214 hvcurveto
            return
          </CharString>
          <CharString index="61">
            -2 callgsubr
            hlineto
            666 -686 rmoveto
            -81 callgsubr
            -412 34 -71 callsubr
            endchar
          </CharString>
          <CharString index="62">
            591 -87 callsubr
            return
          </CharString>
          <CharString index="63">
            -5 27 36 -3 32 hhcurveto
            47 71 14 67 46 -43 16 -49 3 hvcurveto
            return
          </CharString>
          <CharString index="64">
            52 hlineto
            48 143 rlineto
            99 -100 -108 40 vlineto
            return
          </CharString>
          <CharString index="65">
            52 38 57 44 63 vvcurveto
            74 -51 31 -66 -69 -60 -33 -80 -11 2 -13 0 vhcurveto
            62 25 hlineto
            30 16 26 47 45 10 -28 -20 -38 -41 -30 -42 -31 vhcurveto
            return
          </CharString>
          <CharString index="66">
            51 hlineto
            30 9 -8 -16 -19 -16 -5 -25 hvcurveto
            -100 hlineto
            return
          </CharString>
          <CharString index="67">
            73 404 73 return
          </CharString>
          <CharString index="68">
            -65 callsubr
            endchar
          </CharString>
          <CharString index="69">
            39 -17 callgsubr
            return
          </CharString>
          <CharString index="70">
            6 callgsubr
            172 -25 callsubr
            hintmask 11110111
            499 1028 rmoveto
            -65 hlineto
            hintmask 11111011
            -58 callgsubr
            hhcurveto
            hintmask 11110111
            -59 callsubr
            hintmask 11111011
            -82 callgsubr
            hintmask 11110111
            -72 callsubr
            hintmask 11111011
            -58 callsubr
            hintmask 11110111
            -57 callgsubr
            return
          </CharString>
          <CharString index="71">
            21 -9 callsubr
            return
          </CharString>
          <CharString index="72">
            73 -47 callgsubr
            return
          </CharString>
          <CharString index="73">
            -13 callsubr
            hintmask 1110110100000000
            48 callsubr
            hintmask 1111001100000000
            -83 callsubr
            hintmask 1110101010000000
            -72 callsubr
            hintmask 1111010100000000
            -58 callsubr
            hintmask 1110110100000000
            -57 callgsubr
            hintmask 1110110010000000
            return
          </CharString>
          <CharString index="74">
            hintmask 00000000
            hintmask 11011011
            524 868 rmoveto
            -65 hlineto
            hintmask 11101011
            -58 callgsubr
            hhcurveto
            hintmask 11011101
            -59 callsubr
            hintmask 11101101
            -82 callgsubr
            hintmask 11011101
            -72 callsubr
            hintmask 11101011
            -58 callsubr
            hintmask 11011011
            -57 callgsubr
            hintmask 11011001
            return
          </CharString>
          <CharString index="75">
            380 83 -305 hlineto
            -63 226 rlineto
            318 83 -342 hlineto
            -59 211 rlineto
            445 83 -595 hlineto
            -346 -686 rlineto
            95 hlineto
            90 183 rlineto
            331 hlineto
            -117 420 rmoveto
            94 -337 rlineto
            -267 hlineto
            168 337 rlineto
            endchar
          </CharString>
          <CharString index="76">
            74 357 -337 -83 242 -10 hlineto
            return
          </CharString>
          <CharString index="77">
            -117 -238 -238 return
          </CharString>
          <CharString index="78">
            -159 -84 -78 callgsubr
            84 -86 159 hvcurveto
            return
          </CharString>
          <CharString index="79">
            26 18 18 29 28 vvcurveto
            58 -40 46 -79 -79 -40 -46 -58 -29 17 -28 28 -18 vhcurveto
            return
          </CharString>
          <CharString index="80">
            95 -12 81 -48 -21 274 83 260 81 return
          </CharString>
          <CharString index="81">
            rmoveto
            75 hlineto
            48 129 -1 3 6 callsubr
            return
          </CharString>
          <CharString index="82">
            65 197 65 return
          </CharString>
          <CharString index="83">
            -6 vlineto
            -21 callgsubr
            -16 callsubr
            hvcurveto
            6 hlineto
            return
          </CharString>
          <CharString index="84">
            rmoveto
            -15 callgsubr
          </CharString>
          <CharString index="85">
            159 84 86 189 77 -14 60 -27 44 hvcurveto
            return
          </CharString>
          <CharString index="86">
            546 710 rlineto
            -72 hlineto
            return
          </CharString>
          <CharString index="87">
            80 callsubr
            hintmask 11100100
            67 hmoveto
            88 311 hlineto
            99 62 35 67 vhcurveto
            37 hlineto
            hintmask 11001100
            85 vlineto
            hintmask 11100100
            0 -19 8 -28 -72 -35 -47 -44 -17 vhcurveto
            -6 hlineto
            hintmask 11010100
            -10 79 rlineto
            -67 hlineto
            return
          </CharString>
          <CharString index="88">
            -12 73 -40 -7 callsubr
            -23 callgsubr
            hintmask 10111100
            return
          </CharString>
          <CharString index="89">
            rmoveto
            -61 56 28 vlineto
            return
          </CharString>
          <CharString index="90">
            -12 -8 -6 -21 return
          </CharString>
          <CharString index="91">
            -193 79 -82 129 68 60 28 55 35 return
          </CharString>
          <CharString index="92">
            72 callgsubr
            endchar
          </CharString>
          <CharString index="93">
            126 -73 callgsubr
            return
          </CharString>
          <CharString index="94">
            hintmask 0000000000000000
            return
          </CharString>
          <CharString index="95">
            -905 -54 callsubr
            return
          </CharString>
          <CharString index="96">
            75 callsubr
            -65 48 -99 -72 -57 -23 -48 -37 vhcurveto
            -7 return
          </CharString>
          <CharString index="97">
            -16 -12 81 129 81 407 -20 return
          </CharString>
          <CharString index="98">
            -21 686 -20 return
          </CharString>
          <CharString index="99">
            -405 21 -37 callgsubr
            return
          </CharString>
          <CharString index="100">
            -37 callgsubr
            85 132 return
          </CharString>
          <CharString index="101">
            83 211 83 return
          </CharString>
          <CharString index="102">
            526 -88 return
          </CharString>
          <CharString index="103">
            90 51 41 139 139 -51 42 -90 -90 -52 -42 -139 -138 52 -42 90 hvcurveto
            return
          </CharString>
          <CharString index="104">
            vstem
            551 hmoveto
            113 hlineto
            -270 412 261 274 rlineto
            -118 hlineto
            -363 -378 rlineto
            378 -95 -686 95 200 vlineto
            154 144 rlineto
            return
          </CharString>
          <CharString index="105">
            -38 -18 -15 -30 -34 vvcurveto
            -61 37 -48 90 90 38 48 61 return
          </CharString>
          <CharString index="106">
            rmoveto
            30 hlineto
            36 33 -11 -39 -39 -27 -16 -40 return
          </CharString>
          <CharString index="107">
            vvcurveto
            -69 55 -21 47 20 20 5 9 21 vhcurveto
            return
          </CharString>
          <CharString index="108">
            88 249 88 return
          </CharString>
          <CharString index="109">
            41 112 rlineto
            84 -85 -91 34 vlineto
            return
          </CharString>
          <CharString index="110">
            -173 95 return
          </CharString>
          <CharString index="111">
            -108 -295 -105 callsubr
            return
          </CharString>
          <CharString index="112">
            84 callsubr
            hstem
            67 88 vstem
            67 3 callgsubr
            return
          </CharString>
          <CharString index="113">
            rlineto
            -96 hlineto
            return
          </CharString>
          <CharString index="114">
            -60 -159 -105 callsubr
            return
          </CharString>
          <CharString index="115">
            hstemhm
            31 88 -73 91 224 87 -78 91 return
          </CharString>
          <CharString index="116">
            -4 callgsubr
            50 87 100 87 50 95 vstem
            return
          </CharString>
          <CharString index="117">
            rmoveto
            72 hlineto
            -21 callsubr
            return
          </CharString>
          <CharString index="118">
            hstemhm
            64 88 -12 87 100 87 -13 88 hintmask 1011110010000000
            return
          </CharString>
          <CharString index="119">
            -82 callgsubr
            hintmask 11011110
            -72 callsubr
            hintmask 11100110
            -58 callsubr
            hintmask 11010110
            -57 callgsubr
            return
          </CharString>
          <CharString index="120">
            rmoveto
            100 108 -40 hlineto
            40 134 rlineto
            -52 hlineto
            -48 -143 rlineto
            return
          </CharString>
          <CharString index="121">
            -516 9 -21 710 -20 hstem
            -226 618 vstem
            -226 79 callsubr
            endchar
          </CharString>
          <CharString index="122">
            78 31 39 62 85 vvcurveto
            54 vlineto
            return
          </CharString>
          <CharString index="123">
            97 27 49 66 95 vvcurveto
            54 vlineto
            return
          </CharString>
          <CharString index="124">
            rmoveto
            85 hlineto
            62 81 rlineto
            -30 53 65 -14 77 hhcurveto
            214 129 117 238 120 -33 90 -61 59 hvcurveto
            return
          </CharString>
          <CharString index="125">
            hlineto
            76 37 34 75 71 41 -37 -81 vhcurveto
            -16 88 13 vlineto
            143 -78 51 -122 -126 -74 -66 -133 vhcurveto
            return
          </CharString>
          <CharString index="126">
            258 hmoveto
            41 callgsubr
            return
          </CharString>
          <CharString index="127">
            39 21 50 callsubr
            return
          </CharString>
          <CharString index="128">
            -4 callgsubr
            374 95 vstem
            return
          </CharString>
          <CharString index="129">
            -56 callgsubr
            53 return
          </CharString>
          <CharString index="130">
            56 -45 176 -41 vlineto
            -8 -36 -6 -21 -8 -23 rrcurveto
            -96 -95 vlineto
            25 43 45 97 19 86 rrcurveto
            -66 hlineto
            return
          </CharString>
          <CharString index="131">
            rmoveto
            -86 132 6 callsubr
            -1 -3 108 -129 rlineto
            return
          </CharString>
          <CharString index="132">
            rmoveto
            252 56 -174 hlineto
            9 19 29 20 25 19 rrcurveto
            return
          </CharString>
          <CharString index="133">
            -56 callgsubr
            40 108 -95 132 55 callgsubr
            -15 120 hintmask 00000000
            hintmask 11011100
            return
          </CharString>
          <CharString index="134">
            87 vstem
            391 -80 callsubr
            return
          </CharString>
          <CharString index="135">
            hstemhm
            47 98 434 97 -93 93 hintmask 11110100
            return
          </CharString>
          <CharString index="136">
            -52 callgsubr
            22 108 -92 132 76 callsubr
            -74 120 hintmask 11011100
            return
          </CharString>
          <CharString index="137">
            vstem
            762 79 rmoveto
            197 163 rlineto
            21 vlineto
            -197 163 rlineto
            -42 hlineto
            58 -137 rlineto
            return
          </CharString>
          <CharString index="138">
            rmoveto
            48 hlineto
            26 132 rlineto
            146 -100 -146 vlineto
            return
          </CharString>
          <CharString index="139">
            39 0 104 318 104 0 -20 return
          </CharString>
          <CharString index="140">
            39 -12 81 566 51 0 -20 return
          </CharString>
          <CharString index="141">
            10 -71 rlineto
            67 491 hlineto
            return
          </CharString>
          <CharString index="142">
            88 -5 callsubr
            hlineto
            return
          </CharString>
          <CharString index="143">
            rmoveto
            95 56 41 139 139 -56 42 -95 -95 -57 -42 -139 -138 57 -42 95 hvcurveto
            return
          </CharString>
          <CharString index="144">
            rmoveto
            -106 -46 59 143 143 46 59 106 106 46 -59 -143 -143 -46 -59 -106 hvcurveto
            return
          </CharString>
          <CharString index="145">
            -350 627 72 hstem
            14 305 vstem
            14 627 -53 callsubr
            endchar
          </CharString>
          <CharString index="146">
            126 -719 -74 callgsubr
            return
          </CharString>
          <CharString index="147">
            rmoveto
            -1 3 6 callsubr
            -86 -132 rlineto
            75 hlineto
            return
          </CharString>
          <CharString index="148">
            -16 -36 callsubr
            return
          </CharString>
          <CharString index="149">
            67 callsubr
            -12 -20 return
          </CharString>
          <CharString index="150">
            56 73 -42 73 -40 callgsubr
            -31 -25 callsubr
            -57 86 callsubr
            return
          </CharString>
          <CharString index="151">
            -76 callgsubr
            65 64 53 132 hstem
            7 653 vstem
            return
          </CharString>
          <CharString index="152">
            83 213 195 84 -195 214 -83 -214 -194 -84 194 hlineto
            return
          </CharString>
          <CharString index="153">
            rmoveto
            -293 hlineto
            109 11 48 44 99 hhcurveto
            81 54 -42 -111 hvcurveto
            endchar
          </CharString>
          <CharString index="154">
            -34 -19 -54 -14 -33 -4 rrcurveto
            return
          </CharString>
          <CharString index="155">
            441 51 callgsubr
            return
          </CharString>
          <CharString index="156">
            261 0 97 496 93 return
          </CharString>
          <CharString index="157">
            -21 283 83 237 83 return
          </CharString>
          <CharString index="158">
            68 64 -64 117 return
          </CharString>
          <CharString index="159">
            81 617 -20 return
          </CharString>
          <CharString index="160">
            hstemhm
            47 99 466 95 hintmask 10111110
            return
          </CharString>
          <CharString index="161">
            81 31 41 62 87 vvcurveto
            return
          </CharString>
          <CharString index="162">
            3 callsubr
            66 return
          </CharString>
          <CharString index="163">
            -54 -11 45 76 77 11 45 54 54 11 -45 -77 -76 -11 -45 -54 hvcurveto
            return
          </CharString>
          <CharString index="164">
            rmoveto
            62 hlineto
            26 515 rlineto
            -114 hlineto
            return
          </CharString>
          <CharString index="165">
            -100 79 -27 64 vhcurveto
            return
          </CharString>
          <CharString index="166">
            212 -84 callsubr
            return
          </CharString>
          <CharString index="167">
            239 hlineto
            131 82 86 128 123 -72 86 -141 hvcurveto
            return
          </CharString>
          <CharString index="168">
            443 883 rmoveto
            -65 hlineto
            return
          </CharString>
          <CharString index="169">
            63 callsubr
            41 return
          </CharString>
          <CharString index="170">
            -182 57 -28 -21 97 return
          </CharString>
          <CharString index="171">
            79 89 386 89 return
          </CharString>
          <CharString index="172">
            88 359 hlineto
            return
          </CharString>
          <CharString index="173">
            56 callgsubr
            47 98 216 56 -14 72 159 98 return
          </CharString>
          <CharString index="174">
            -21 465 73 return
          </CharString>
          <CharString index="175">
            -868 rmoveto
            -31 callsubr
            return
          </CharString>
          <CharString index="176">
            151 -12 55 106 56 98 55 return
          </CharString>
          <CharString index="177">
            405 73 hstemhm
            31 88 -73 91 return
          </CharString>
          <CharString index="178">
            -55 26 -56 78 24 return
          </CharString>
          <CharString index="179">
            3 callsubr
            99 -21 return
          </CharString>
          <CharString index="180">
            -183 -182 return
          </CharString>
          <CharString index="181">
            151 0 138 -129 -21 94 56 190 return
          </CharString>
          <CharString index="182">
            65 callsubr
            131 return
          </CharString>
          <CharString index="183">
            hstemhm
            -14 callgsubr
            return
          </CharString>
          <CharString index="184">
            -47 callgsubr
            53 56 callgsubr
            return
          </CharString>
          <CharString index="185">
            -21 723 -20 hstem
            67 88 vstem
            67 hmoveto
            88 return
          </CharString>
          <CharString index="186">
            -12 10 callsubr
            return
          </CharString>
          <CharString index="187">
            -21 445 93 -12 -20 24 -20 hstemhm
            67 88 return
          </CharString>
          <CharString index="188">
            -57 callgsubr
            -65 hlineto
            return
          </CharString>
          <CharString index="189">
            797 -18 callsubr
            return
          </CharString>
          <CharString index="190">
            -63 callsubr
            82 return
          </CharString>
          <CharString index="191">
            -37 callgsubr
            119 98 return
          </CharString>
          <CharString index="192">
            vlineto
            -137 58 rlineto
            -42 vlineto
            return
          </CharString>
          <CharString index="193">
            88 -13 callsubr
            return
          </CharString>
          <CharString index="194">
            -723 rmoveto
            -64 callgsubr
            return
          </CharString>
          <CharString index="195">
            hlineto
            81 41 -47 -80 -81 -48 -49 -74 hvcurveto
            return
          </CharString>
          <CharString index="196">
            72 70 callsubr
            69 return
          </CharString>
          <CharString index="197">
            -405 735 -20 hstem
            1 276 vstem
            return
          </CharString>
          <CharString index="198">
            -405 21 -21 return
          </CharString>
        <CharString name=".notdef">
          -182 0 50 600 50 hstem
          0 50 400 50 vstem
          0 vmoveto
          500 700 -500 hlineto
          420 -50 rmoveto
          -170 -255 -170 255 rlineto
          140 -300 rmoveto
          -170 -255 rlineto
          510 vlineto
          400 hmoveto
          -510 vlineto
          -170 255 rlineto
          -30 -45 rmoveto
          170 -255 rlineto
          -340 hlineto
          endchar
        </CharString>
        <CharString name="A">
          -76 callgsubr
          hstem
          7 653 vstem
          559 hmoveto
          -106 callgsubr
          endchar
        </CharString>
        <CharString name="AE">
          317 0 83 100 83 43 -6 callsubr
          hstem
          -1 947 vstem
          566 hmoveto
          -32 callsubr
        </CharString>
        <CharString name="AEacute">
          317 0 83 100 83 43 -6 callsubr
          50 132 hstem
          -1 947 vstem
          462 -79 callgsubr
          18 -868 rmoveto
          -32 callsubr
        </CharString>
        <CharString name="Aacute">
          -76 callgsubr
          50 132 hstem
          7 653 vstem
          296 -79 callgsubr
          177 -74 callsubr
        </CharString>
        <CharString name="Abreve">
          -76 callgsubr
          65 64 hstem
          7 653 vstem
          479 868 -98 callsubr
          endchar
        </CharString>
        <CharString name="Acircumflex">
          -76 callgsubr
          47 135 hstem
          7 653 vstem
          391 -80 callsubr
          225 -812 -103 callgsubr
        </CharString>
        <CharString name="Adieresis">
          -76 callgsubr
          87 95 hstem
          197 87 100 87 vstem
          197 -52 callsubr
          175 -74 callsubr
        </CharString>
        <CharString name="Agrave">
          -76 callgsubr
          50 132 hstem
          7 653 vstem
          296 -44 callgsubr
          371 -865 -103 callgsubr
        </CharString>
        <CharString name="Amacron">
          -76 callgsubr
          77 72 hstem
          7 653 vstem
          184 763 -53 callsubr
          375 -835 -103 callgsubr
        </CharString>
        <CharString name="Aogonek">
          -16 -182 65 138 83 callsubr
          hstem
          505 77 vstem
          660 -168 rmoveto
          51 -32 vlineto
          -29 -17 16 29 29 21 26 21 17 hvcurveto
          36 hlineto
          -101 callgsubr
          69 -183 rlineto
          -29 -23 -25 -27 -42 vvcurveto
          -69 50 -21 42 20 23 5 9 20 vhcurveto
          -327 772 rmoveto
          126 -338 rlineto
          -256 hlineto
          125 338 rlineto
          endchar
        </CharString>
        <CharString name="Aring">
          -76 callgsubr
          25 45 102 45 hstemhm
          238 45 102 45 hintmask 00000000
          hintmask 11111110
          334 711 -80 callgsubr
          174 -807 rmoveto
          101 hlineto
          hintmask 11101110
          -101 callgsubr
          -157 421 rmoveto
          126 -338 rlineto
          -256 hlineto
          125 338 rlineto
          endchar
        </CharString>
        <CharString name="Aringacute">
          -16 21 -63 callsubr
          88 0 -20 122 45 22 132 hstemhm
          237 45 102 45 hintmask 00000000
          hintmask 11011111
          296 861 -97 callsubr
          -375 -993 rmoveto
          98 hlineto
          67 183 rlineto
          318 hlineto
          69 -183 rlineto
          101 hlineto
          -260 671 rlineto
          hintmask 11011011
          19 17 10 26 29 vvcurveto
          53 -36 43 -60 -60 -36 -43 -53 -29 11 -26 19 -17 vhcurveto
          66 21 rmoveto
          -30 -21 23 28 28 21 23 30 30 21 -23 -28 -28 -21 -23 -30 hvcurveto
          -130 -426 rmoveto
          hintmask 11101011
          125 338 rlineto
          5 hlineto
          126 -338 rlineto
          endchar
        </CharString>
        <CharString name="Atilde">
          -76 callgsubr
          78 6 callgsubr
          170 -25 callsubr
          hintmask 11101110
          84 callgsubr
          hintmask 11110110
          -58 callgsubr
          hhcurveto
          hintmask 11101110
          -59 callsubr
          hintmask 11110110
          -82 callgsubr
          hintmask 11101110
          -72 callsubr
          hintmask 11110110
          -58 callsubr
          hintmask 11101110
          -57 callgsubr
          62 -74 callsubr
        </CharString>
        <CharString name="B">
          -16 0 83 227 83 210 83 hstemhm
          79 95 330 97 -78 97 hintmask 11110100
          79 hmoveto
          331 hlineto
          120 90 54 128 101 -57 55 -76 18 hvcurveto
          4 vlineto
          hintmask 11111000
          65 21 49 58 79 vvcurveto
          101 -77 67 -114 vhcurveto
          -331 hlineto
          95 -83 rmoveto
          225 hlineto
          63 42 -32 -72 -63 -45 -43 -68 hvcurveto
          -217 hlineto
          -83 vmoveto
          227 hlineto
          hintmask 11110100
          80 42 -38 -78 -81 -45 -30 -70 hvcurveto
          -234 hlineto
          endchar
        </CharString>
        <CharString name="C">
          39 -66 callgsubr
          hstemhm
          47 98 434 97 -93 93 hintmask 11101000
          676 246 rmoveto
          -93 hlineto
          -119 -79 -58 -123 -160 -76 78 196 196 76 78 160 vhcurveto
          hintmask 11110000
          121 77 -59 -120 hvcurveto
          97 hlineto
          175 -123 85 -172 -220 -114 -30 callsubr
          114 -117 220 vhcurveto
          hintmask 11101000
          172 123 81 177 hvcurveto
          endchar
        </CharString>
        <CharString name="CR">
          -683 endchar
        </CharString>
        <CharString name="Cacute">
          39 -66 callgsubr
          38 132 28 callsubr
          323 -79 callgsubr
          267 -622 -89 callgsubr
        </CharString>
        <CharString name="Cacute.loclPLK">
          39 -66 callgsubr
          38 132 28 callsubr
          323 736 -26 callsubr
          327 -622 -89 callgsubr
        </CharString>
        <CharString name="Ccaron">
          39 -66 callgsubr
          35 135 28 callsubr
          319 733 -100 callsubr
          463 -622 -89 callgsubr
        </CharString>
        <CharString name="Ccedilla">
          39 62 callsubr
          26 79 548 81 hstemhm
          47 98 277 72 85 97 -93 93 -13 callsubr
          hintmask 1011111010000000
          332 -77 rmoveto
          -41 callsubr
          hintmask 0101111010000000
          -49 vlineto
          hintmask 1011111010000000
          -44 callsubr
          hintmask 1001111010000000
          4 25 rlineto
          159 7 111 81 169 vvcurveto
          -93 hlineto
          -119 -79 -58 -123 -160 -76 78 196 196 76 78 160 vhcurveto
          hintmask 1001111100000000
          121 77 -59 -120 hvcurveto
          97 hlineto
          175 -123 85 -172 -220 -114 -117 -238 -224 101 -117 196 -12 vhcurveto
          endchar
        </CharString>
        <CharString name="Ccircumflex">
          39 -66 callgsubr
          35 135 28 callsubr
          418 -80 callsubr
          315 -566 -89 callgsubr
        </CharString>
        <CharString name="Cdotaccent">
          39 -66 callgsubr
          75 95 hstemhm
          47 98 172 87 175 97 -93 93 hintmask 11111010
          317 35 callgsubr
          359 -622 rmoveto
          -93 hlineto
          -119 -79 -58 -123 -160 -76 78 196 196 76 78 160 vhcurveto
          hintmask 11111100
          121 77 -59 -120 hvcurveto
          97 hlineto
          175 -123 85 -172 -220 -114 -30 callsubr
          114 -117 220 vhcurveto
          hintmask 11111010
          172 123 81 177 hvcurveto
          endchar
        </CharString>
        <CharString name="D">
          39 0 83 520 11 callgsubr
          hlineto
          254 -603 -71 callsubr
          endchar
        </CharString>
        <CharString name="Dcaron">
          39 0 83 520 83 47 135 -4 callgsubr
          404 98 vstem
          319 733 -100 callsubr
          -134 -868 rmoveto
          -2 callgsubr
          hlineto
          254 -603 -71 callsubr
          endchar
        </CharString>
        <CharString name="Dcroat">
          -48 callgsubr
        </CharString>
        <CharString name="Delta">
          -16 0 83 516 87 hstem
          7 653 vstem
          7 hmoveto
          653 hlineto
          -266 686 rlineto
          -121 hlineto
          60 -87 rmoveto
          192 -516 rlineto
          -387 hlineto
          190 516 rlineto
          endchar
        </CharString>
        <CharString name="E">
          -69 callgsubr
          -4 callgsubr
          vstem
          79 hmoveto
          -95 callgsubr
          endchar
        </CharString>
        <CharString name="Eacute">
          -69 callgsubr
          50 132 -4 callgsubr
          vstem
          296 -79 callgsubr
          -303 -868 rmoveto
          -95 callgsubr
          endchar
        </CharString>
        <CharString name="Ebreve">
          -69 callgsubr
          65 64 -4 callgsubr
          vstem
          479 -70 callgsubr
          -400 -868 rmoveto
          -95 callgsubr
          endchar
        </CharString>
        <CharString name="Ecaron">
          -69 callgsubr
          47 135 -4 callgsubr
          vstem
          292 733 -100 callsubr
          -107 -868 rmoveto
          -95 callgsubr
          endchar
        </CharString>
        <CharString name="Ecircumflex">
          -69 callgsubr
          47 135 hstem
          79 95 vstem
          391 733 -85 callgsubr
        </CharString>
        <CharString name="Edieresis">
          -69 callgsubr
          87 95 hstemhm
          79 95 23 87 100 87 hintmask 00000000
          hintmask 11111110
          197 -52 callsubr
          hintmask 11111010
          -305 -868 rmoveto
          -95 callgsubr
          endchar
        </CharString>
        <CharString name="Edotaccent">
          -69 callgsubr
          87 95 -4 callgsubr
          116 87 vstem
          290 35 callgsubr
          -211 -868 rmoveto
          -95 callgsubr
          endchar
        </CharString>
        <CharString name="Egrave">
          -69 callgsubr
          50 132 -4 callgsubr
          vstem
          296 -44 callgsubr
          -109 -865 rmoveto
          -95 callgsubr
          endchar
        </CharString>
        <CharString name="Emacron">
          -69 callgsubr
          77 72 -4 callgsubr
          vstem
          204 763 -53 callsubr
          -125 -835 rmoveto
          -95 callgsubr
          endchar
        </CharString>
        <CharString name="Eng">
          39 33 callgsubr
          686 -20 hstemhm
          64 callsubr
          hintmask 10111100
          464 -113 rmoveto
          hintmask 01111100
          -57 vlineto
          hintmask 10111100
          -6 17 28 -6 24 hhcurveto
          85 25 61 60 hvcurveto
          747 -89 -519 vlineto
          73 callgsubr
          520 rlineto
          -85 -686 89 518 hlineto
          4 1 382 -519 rlineto
          -65 vlineto
          -31 -16 -17 -31 vhcurveto
          endchar
        </CharString>
        <CharString name="Eogonek">
          -16 -182 65 117 -59 callgsubr
          -4 callgsubr
          276 78 vstem
          613 32 callgsubr
          25 26 26 25 40 60 hvcurveto
          83 -439 226 389 83 -389 211 433 83 -528 -686 434 vlineto
          -41 -21 -22 -30 -43 vvcurveto
          -68 60 -20 38 21 22 5 9 22 vhcurveto
          endchar
        </CharString>
        <CharString name="Eth">
          -48 callgsubr
        </CharString>
        <CharString name="Euro">
          -12 73 182 65 70 65 182 73 -10 -20 hstemhm
          88 94 hintmask 11110100
          521 -2 rmoveto
          71 vlineto
          -5 -22 -22 -3 -24 hhcurveto
          -123 -105 57 125 -32 hvcurveto
          257 65 -268 hlineto
          -1 11 0 12 0 12 0 12 0 11 12 flex1
          268 65 -257 hlineto
          125 32 105 57 123 hhcurveto
          24 22 -3 -5 22 hvcurveto
          hintmask 11101100
          71 vlineto
          hintmask 11110100
          7 -27 -27 3 -28 hhcurveto
          -186 -122 -92 -163 -34 hvcurveto
          -78 -65 69 hlineto
          -1 -12 0 -11 0 -12 0 -12 0 -12 -11 flex1
          -69 -65 78 hlineto
          -163 34 122 -92 186 hhcurveto
          28 27 4 6 27 hvcurveto
          endchar
        </CharString>
        <CharString name="F">
          -72 21 -21 302 83 218 83 -4 callgsubr
          vstem
          174 302 rmoveto
          355 83 -355 218 391 83 -486 -686 95 hlineto
          endchar
        </CharString>
        <CharString name="G">
          -27 callsubr
          hstemhm
          47 99 466 95 hintmask 00000000
          hintmask 01111100
          633 hmoveto
          -31 callsubr
          hintmask 10111100
          -99 callsubr
          endchar
        </CharString>
        <CharString name="G_tilde.loclGUA">
          -27 callsubr
          66 6 callgsubr
          47 99 79 -25 callsubr
          60 95 hintmask 1011011011000000
          552 868 rmoveto
          -65 hlineto
          hintmask 1011101011000000
          -58 callgsubr
          hhcurveto
          hintmask 1011011111000000
          -59 callsubr
          hintmask 1011101111000000
          -82 callgsubr
          hintmask 1011011111000000
          -72 callsubr
          hintmask 1011101011000000
          -58 callsubr
          hintmask 1011011011000000
          -57 callgsubr
          hintmask 0111011011000000
          81 68 callsubr
          hintmask 1011011011000000
          -99 callsubr
          endchar
        </CharString>
        <CharString name="Gbreve">
          -27 callsubr
          53 64 53 callsubr
          534 -70 callgsubr
          hintmask 01111110
          99 68 callsubr
          hintmask 10111110
          -99 callsubr
          endchar
        </CharString>
        <CharString name="Gcaron">
          -27 callsubr
          35 135 53 callsubr
          347 733 -100 callsubr
          hintmask 01111110
          392 68 callsubr
          hintmask 10111110
          -99 callsubr
          endchar
        </CharString>
        <CharString name="Gcircumflex">
          -27 callsubr
          35 135 53 callsubr
          36 callgsubr
          hintmask 01111110
          244 -812 rmoveto
          -31 callsubr
          hintmask 10111110
          -99 callsubr
          endchar
        </CharString>
        <CharString name="Gcommaaccent">
          95 -149 91 46 81 -48 -21 274 83 260 81 hstemhm
          47 99 199 88 179 95 hintmask 00000000
          hintmask 10111111
          633 hmoveto
          -31 callsubr
          hintmask 11011111
          -99 callsubr
          -281 -306 rmoveto
          -71 callgsubr
        </CharString>
        <CharString name="Gdotaccent">
          -27 callsubr
          75 95 hstemhm
          47 99 199 87 180 95 hintmask 10111111
          345 35 callgsubr
          hintmask 01111111
          288 68 callsubr
          hintmask 10111111
          -99 callsubr
          endchar
        </CharString>
        <CharString name="H">
          39 21 -21 309 83 294 -20 21 callsubr
          548 hmoveto
          5 callgsubr
          endchar
        </CharString>
        <CharString name="Hbar">
          39 21 -21 309 83 134 72 -72 160 hstemhm
          79 95 374 95 hintmask 11011100
          548 hmoveto
          95 526 70 hlineto
          hintmask 11101100
          72 -70 vlineto
          hintmask 11011100
          88 -95 vlineto
          hintmask 11101100
          -88 -374 vlineto
          hintmask 11011100
          88 -95 vlineto
          hintmask 11101100
          -88 -70 vlineto
          hintmask 11011100
          -72 70 -526 95 309 374 vlineto
          217 vmoveto
          -134 -374 134 vlineto
          endchar
        </CharString>
        <CharString name="Hcircumflex">
          39 21 -21 309 83 294 -20 67 135 21 callsubr
          418 -80 callsubr
          187 -812 rmoveto
          5 callgsubr
          endchar
        </CharString>
        <CharString name="I">
          -7 callgsubr
          hstem
          92 95 vstem
          92 hmoveto
          -15 callsubr
        </CharString>
        <CharString name="IJ">
          95 -12 81 -48 -9 callsubr
          hstemhm
          92 95 120 95 203 95 hintmask 00000000
          hintmask 01111100
          92 hmoveto
          72 callgsubr
          513 hmoveto
          -492 vlineto
          hintmask 10111100
          -79 callsubr
        </CharString>
        <CharString name="Iacute">
          -405 -9 callgsubr
          92 95 vstem
          101 -79 callgsubr
          -95 15 callgsubr
        </CharString>
        <CharString name="Iacute_J.loclNLD">
          95 -12 81 -48 -9 callsubr
          70 132 hstemhm
          92 95 120 95 203 95 hintmask 10111110
          101 -79 callgsubr
          428 -132 -97 callsubr
          hintmask 01111110
          -609 -868 rmoveto
          72 callgsubr
          513 hmoveto
          -492 vlineto
          hintmask 10111110
          -79 callsubr
        </CharString>
        <CharString name="Ibreve">
          -7 callgsubr
          85 64 hstem
          92 95 vstem
          284 -70 callgsubr
          -192 15 callgsubr
        </CharString>
        <CharString name="Icircumflex">
          -7 callgsubr
          67 135 hstem
          92 95 vstem
          196 -80 callsubr
          -47 -812 -22 callgsubr
        </CharString>
        <CharString name="Idieresis">
          -7 callgsubr
          107 95 hstemhm
          2 87 3 95 2 87 hintmask 00000000
          hintmask 11110100
          2 -52 callsubr
          hintmask 11101000
          -97 15 callgsubr
        </CharString>
        <CharString name="Idotaccent">
          -7 callgsubr
          107 95 hstemhm
          92 95 -92 87 hintmask 00000000
          hintmask 11101000
          95 35 callgsubr
          hintmask 11110000
          -3 15 callgsubr
        </CharString>
        <CharString name="Igrave">
          -405 -9 callgsubr
          92 95 vstem
          101 -44 callgsubr
          99 -865 -22 callgsubr
        </CharString>
        <CharString name="Imacron">
          -7 callgsubr
          97 72 hstem
          92 95 vstem
          -14 763 -53 callsubr
          106 -835 -22 callgsubr
        </CharString>
        <CharString name="Iogonek">
          -405 -182 65 138 -9 callsubr
          hstem
          92 95 vstem
          212 -168 rmoveto
          51 -24 vlineto
          -45 -16 27 28 25 11 34 49 3 hvcurveto
          686 -95 -686 vlineto
          -25 -16 -18 -31 -39 vvcurveto
          -74 51 -22 46 22 21 5 9 23 vhcurveto
          endchar
        </CharString>
        <CharString name="Itilde">
          -7 callgsubr
          98 6 callgsubr
          -25 65 52 95 50 65 hintmask 11010110
          302 868 rmoveto
          -65 hlineto
          hintmask 11100110
          -58 callgsubr
          hhcurveto
          hintmask 11011110
          -59 callsubr
          hintmask 11101110
          12 callsubr
          -210 15 callgsubr
        </CharString>
        <CharString name="J">
          -183 -17 callgsubr
          hstem
          29 95 203 95 vstem
          327 686 rmoveto
          -492 vlineto
          -79 callsubr
        </CharString>
        <CharString name="Jcircumflex">
          -183 -17 callgsubr
          67 135 hstem
          29 95 203 95 vstem
          432 -80 callsubr
          -48 -126 rmoveto
          -492 vlineto
          -79 callsubr
        </CharString>
        <CharString name="K">
          41 callsubr
          -4 callgsubr
          -3 callsubr
          endchar
        </CharString>
        <CharString name="Kcommaaccent">
          -16 65 callgsubr
          686 -20 -4 callgsubr
          116 88 -3 callsubr
          -38 -574 rmoveto
          -71 callgsubr
        </CharString>
        <CharString name="L">
          0 83 callgsubr
          vstem
          0 callgsubr
          endchar
        </CharString>
        <CharString name="Lacute">
          0 83 603 -20 70 132 -4 callgsubr
          vstem
          89 -79 callgsubr
          -96 -868 rmoveto
          447 83 -352 603 -95 hlineto
          endchar
        </CharString>
        <CharString name="Lcaron">
          0 83 407 196 -91 91 hstemhm
          79 95 146 85 hintmask 10111000
          0 callgsubr
          hintmask 11011000
          241 -196 rmoveto
          44 hlineto
          hintmask 10111000
          2 callsubr
          endchar
        </CharString>
        <CharString name="Lcommaaccent">
          -149 91 58 83 callgsubr
          85 88 vstem
          0 callgsubr
          180 -916 rmoveto
          -71 callgsubr
        </CharString>
        <CharString name="Ldot">
          0 83 335 108 160 -20 -4 callgsubr
          177 100 vstem
          0 callgsubr
          272 -268 -18 callgsubr
          endchar
        </CharString>
        <CharString name="Lslash">
          0 83 callgsubr
          vstem
          79 hmoveto
          447 83 -352 244 hlineto
          167 111 rlineto
          82 vlineto
          -167 -111 rlineto
          277 -95 -340 vlineto
          -74 -49 rlineto
          -81 vlineto
          74 49 rlineto
          endchar
        </CharString>
        <CharString name="M">
          150 0 115 -94 -21 581 105 hstemhm
          79 89 491 95 hintmask 01111000
          659 hmoveto
          95 686 -140 hlineto
          -165 -468 rlineto
          hintmask 10111000
          -13 -35 -17 -68 0 vvcurveto
          -4 hlineto
          0 -16 61 -15 42 vhcurveto
          -164 468 rlineto
          -141 -686 89 453 hlineto
          28 -2 100 0 vhcurveto
          6 hlineto
          0 9 -44 8 -22 vhcurveto
          183 -515 rlineto
          79 hlineto
          186 515 rlineto
          9 26 8 40 0 vvcurveto
          7 hlineto
          -2 -128 rlineto
          endchar
        </CharString>
        <CharString name="N">
          76 callgsubr
          hstem
          64 callsubr
          vstem
          19 callgsubr
          endchar
        </CharString>
        <CharString name="NULL">
          -683 endchar
        </CharString>
        <CharString name="Nacute">
          39 -9 callgsubr
          64 callsubr
          vstem
          323 -79 callgsubr
          153 -868 rmoveto
          -83 callgsubr
          endchar
        </CharString>
        <CharString name="Nacute.loclPLK">
          39 -9 callgsubr
          64 callsubr
          vstem
          323 736 -26 callsubr
          213 -868 rmoveto
          -83 callgsubr
          endchar
        </CharString>
        <CharString name="Ncaron">
          76 callgsubr
          67 135 hstem
          64 callsubr
          vstem
          319 733 -100 callsubr
          349 -868 rmoveto
          -83 callgsubr
          endchar
        </CharString>
        <CharString name="Ncommaaccent">
          39 65 callgsubr
          686 -20 hstem
          79 89 149 88 149 89 vstem
          19 callgsubr
          145 -749 rmoveto
          -71 callgsubr
        </CharString>
        <CharString name="Ntilde">
          76 callgsubr
          98 6 callgsubr
          79 89 29 -25 callsubr
          30 89 -33 callsubr
          38 -868 rmoveto
          -83 callgsubr
          endchar
        </CharString>
        <CharString name="O">
          -52 callgsubr
          -28 callgsubr
          389 -12 rmoveto
          -107 callgsubr
          endchar
        </CharString>
        <CharString name="OE">
          317 -12 81 -69 80 231 80 215 80 -69 81 hstemhm
          47 98 362 95 hintmask 01110110
          507 hmoveto
          439 80 -344 231 282 80 -282 215 337 80 -432 hlineto
          hintmask 10101110
          -76 vlineto
          58 -45 -62 30 -79 hhcurveto
          -172 -102 -30 callsubr
          102 -117 172 79 62 29 59 45 hvcurveto
          -173 -7 rmoveto
          -123 -66 73 201 201 66 73 123 107 66 -73 -201 -201 -66 -73 -107 hvcurveto
          endchar
        </CharString>
        <CharString name="Oacute">
          -31 callgsubr
          351 -79 callgsubr
          -48 -880 rmoveto
          -107 callgsubr
          endchar
        </CharString>
        <CharString name="Oacute.loclPLK">
          -31 callgsubr
          351 736 -26 callsubr
          12 -880 rmoveto
          -107 callgsubr
          endchar
        </CharString>
        <CharString name="Obreve">
          -52 callgsubr
          53 64 -28 callgsubr
          534 -70 callgsubr
          -145 -880 rmoveto
          -107 callgsubr
          endchar
        </CharString>
        <CharString name="Ocircumflex">
          -52 callgsubr
          35 135 -28 callgsubr
          36 callgsubr
          -824 vmoveto
          -107 callgsubr
          endchar
        </CharString>
        <CharString name="Odieresis">
          -52 callgsubr
          75 95 hstem
          47 98 107 87 100 87 108 98 vstem
          252 -52 callsubr
          -50 -880 rmoveto
          -107 callgsubr
          endchar
        </CharString>
        <CharString name="Ograve">
          -31 callgsubr
          351 -44 callgsubr
          146 -877 rmoveto
          -107 callgsubr
          endchar
        </CharString>
        <CharString name="Ohorn">
          -52 callgsubr
          22 108 76 callsubr
          -74 120 hintmask 00000000
          hintmask 11110100
          778 774 17 callgsubr
          hintmask 11010100
          -78 callsubr
          hintmask 11011000
          -39 callgsubr
          hintmask 11110100
          54 callsubr
          hintmask 11011000
          -77 callgsubr
          endchar
        </CharString>
        <CharString name="Ohungarumlaut">
          -31 callgsubr
          281 736 -60 callgsubr
          -93 -880 rmoveto
          -107 callgsubr
          endchar
        </CharString>
        <CharString name="Omacron">
          -52 callgsubr
          65 72 -28 callgsubr
          240 763 -53 callsubr
          149 -847 rmoveto
          -107 callgsubr
          endchar
        </CharString>
        <CharString name="Omega">
          -63 callgsubr
        </CharString>
        <CharString name="Oslash">
          -52 callgsubr
          37 -20 -28 callgsubr
          47 -49 17 callsubr
          -56 callsubr
        </CharString>
        <CharString name="Oslashacute">
          -52 callgsubr
          37 -20 22 132 76 callsubr
          hintmask 00000000
          hintmask 11011100
          343 737 -97 callsubr
          -382 -918 17 callsubr
          hintmask 11101100
          -56 callsubr
        </CharString>
        <CharString name="Otilde">
          -52 callgsubr
          66 6 callgsubr
          47 98 80 -25 callsubr
          82 98 hintmask 11011011
          552 868 rmoveto
          -65 hlineto
          hintmask 11101011
          -58 callgsubr
          hhcurveto
          hintmask 11011111
          -59 callsubr
          hintmask 11101111
          -82 callgsubr
          hintmask 11011111
          -72 callsubr
          hintmask 11101011
          -58 callsubr
          hintmask 11011011
          -57 callgsubr
          -163 -880 rmoveto
          -107 callgsubr
          endchar
        </CharString>
        <CharString name="P">
          -16 21 -21 263 83 257 83 -4 callgsubr
          356 96 vstem
          79 hmoveto
          95 263 60 callsubr
          -334 hlineto
          329 -340 rmoveto
          -234 257 234 88 callsubr
          endchar
        </CharString>
        <CharString name="Q">
          -52 callgsubr
          -28 callgsubr
          559 -130 rmoveto
          134 hlineto
          -148 144 rlineto
          119 47 68 109 173 vvcurveto
          238 -129 117 -214 -214 -128 -30 callsubr
          128 -117 214 16 16 1 1 15 vhcurveto
          -47 79 rmoveto
          -151 -93 76 198 198 93 76 151 152 93 -76 -198 -198 -93 -76 -152 hvcurveto
          endchar
        </CharString>
        <CharString name="R">
          20 callsubr
          -4 callgsubr
          379 -32 callgsubr
          endchar
        </CharString>
        <CharString name="Racute">
          20 callsubr
          50 132 -4 callgsubr
          379 96 vstem
          323 -79 callgsubr
          -330 -868 rmoveto
          -95 callsubr
          endchar
        </CharString>
        <CharString name="Rcaron">
          20 callsubr
          47 135 -4 callgsubr
          379 96 vstem
          319 733 -100 callsubr
          -134 -868 rmoveto
          -95 callsubr
          endchar
        </CharString>
        <CharString name="Rcommaaccent">
          39 -149 91 79 50 callsubr
          -4 callgsubr
          143 88 148 -33 callgsubr
          -596 rmoveto
          -71 callgsubr
        </CharString>
        <CharString name="S">
          -16 -66 callgsubr
          10 callgsubr
          hintmask 00000000
          hintmask 11011000
          503 493 rmoveto
          93 12 hlineto
          137 -117 56 -146 -147 -120 -58 -126 vhcurveto
          hintmask 11010100
          -248 455 93 -176 vvcurveto
          -74 -69 -40 -125 vhcurveto
          hintmask 11100100
          -108 -77 40 84 hvcurveto
          6 2 14 1 vvcurveto
          -94 hlineto
          -3 -1 -10 -7 vvcurveto
          -151 130 -55 153 163 121 56 154 vhcurveto
          hintmask 11010100
          244 -454 -85 164 vvcurveto
          66 73 30 101 vhcurveto
          hintmask 11011000
          96 71 -39 -70 hvcurveto
          endchar
        </CharString>
        <CharString name="Sacute">
          -16 -66 callgsubr
          38 132 10 callgsubr
          hintmask 11101010
          296 -79 callgsubr
          hintmask 11101100
          121 -375 -93 callsubr
        </CharString>
        <CharString name="Sacute.loclPLK">
          -16 -66 callgsubr
          38 132 10 callgsubr
          hintmask 11101010
          296 736 -26 callsubr
          hintmask 11101100
          181 -375 -93 callsubr
        </CharString>
        <CharString name="Scaron">
          -16 -66 callgsubr
          35 135 10 callgsubr
          hintmask 11101010
          292 733 -100 callsubr
          hintmask 11101100
          317 -375 -93 callsubr
        </CharString>
        <CharString name="Scedilla">
          -16 62 callsubr
          25 80 548 81 hstemhm
          49 93 -76 96 221 72 48 93 -75 95 -13 callsubr
          hintmask 1011101101000000
          293 -77 rmoveto
          -41 callsubr
          hintmask 0101101001000000
          -49 vlineto
          hintmask 1011101101000000
          -44 callsubr
          hintmask 1001101001000000
          4 25 rlineto
          145 8 104 58 143 244 -454 -85 164 vvcurveto
          66 73 30 101 vhcurveto
          hintmask 1001101010000000
          96 71 -39 -70 hvcurveto
          -15 93 12 vlineto
          137 -117 56 -146 -147 -120 -58 -126 vhcurveto
          hintmask 1001101001000000
          -248 455 93 -176 vvcurveto
          -74 -69 -40 -125 vhcurveto
          hintmask 1001110001000000
          -108 -77 40 84 hvcurveto
          6 2 14 1 vvcurveto
          -94 hlineto
          -3 -1 -10 -7 vvcurveto
          -142 115 -57 141 -6 vhcurveto
          endchar
        </CharString>
        <CharString name="Scircumflex">
          -16 -66 callgsubr
          35 135 10 callgsubr
          hintmask 11101010
          391 -80 callsubr
          hintmask 11101100
          169 -319 -93 callsubr
        </CharString>
        <CharString name="Scommaaccent">
          -16 -149 91 46 -50 callsubr
          hstemhm
          49 93 -76 96 128 88 125 -66 callsubr
          -738 rmoveto
          -71 callgsubr
        </CharString>
        <CharString name="T">
          -72 21 -21 603 83 hstem
          258 95 vstem
          19 callsubr
          endchar
        </CharString>
        <CharString name="Tbar">
          -72 21 -21 381 72 150 83 hstem
          258 95 vstem
          258 hmoveto
          95 381 105 72 -105 150 236 83 -567 -83 236 -150 -105 -72 105 hlineto
          endchar
        </CharString>
        <CharString name="Tcaron">
          -72 21 -21 603 83 47 135 hstem
          258 95 vstem
          264 733 -100 callsubr
          100 -868 rmoveto
          41 callgsubr
          endchar
        </CharString>
        <CharString name="Thorn">
          -16 21 -21 144 83 257 83 -83 202 hstemhm
          79 95 356 96 hintmask 11101100
          174 144 rmoveto
          60 callsubr
          -239 hlineto
          hintmask 11011100
          119 -95 -686 95 vlineto
          234 227 rmoveto
          -234 hlineto
          hintmask 11101100
          257 234 vlineto
          81 41 -47 -80 hvcurveto
          hintmask 11011100
          -81 -48 -49 -74 vhcurveto
          endchar
        </CharString>
        <CharString name="U">
          -38 callsubr
          21 callsubr
          548 686 rmoveto
          -438 vlineto
          -105 callgsubr
          433 vlineto
          endchar
        </CharString>
        <CharString name="Uacute">
          60 callgsubr
          323 -79 callgsubr
          139 -182 rmoveto
          -438 vlineto
          -105 callgsubr
          433 vlineto
          endchar
        </CharString>
        <CharString name="Ubreve">
          -38 callsubr
          85 64 21 callsubr
          506 -70 callgsubr
          42 -182 rmoveto
          -438 vlineto
          -105 callgsubr
          433 vlineto
          endchar
        </CharString>
        <CharString name="Ucircumflex">
          -38 callsubr
          67 135 21 callsubr
          418 -80 callsubr
          187 -126 rmoveto
          -438 vlineto
          -105 callgsubr
          433 vlineto
          endchar
        </CharString>
        <CharString name="Udieresis">
          -38 callsubr
          107 95 9 callsubr
          224 -52 callsubr
          137 -182 rmoveto
          -438 vlineto
          -105 callgsubr
          433 vlineto
          endchar
        </CharString>
        <CharString name="Ugrave">
          60 callgsubr
          323 -44 callgsubr
          333 -179 rmoveto
          -438 vlineto
          -105 callgsubr
          433 vlineto
          endchar
        </CharString>
        <CharString name="Uhorn">
          -60 callsubr
          endchar
        </CharString>
        <CharString name="Uhungarumlaut">
          60 callgsubr
          253 736 -60 callgsubr
          94 -182 rmoveto
          -438 vlineto
          -105 callgsubr
          433 vlineto
          endchar
        </CharString>
        <CharString name="Umacron">
          -38 callsubr
          97 72 21 callsubr
          208 763 -53 callsubr
          340 -149 rmoveto
          -438 vlineto
          -105 callgsubr
          433 vlineto
          endchar
        </CharString>
        <CharString name="Uogonek">
          39 -182 65 105 52 callsubr
          -4 callgsubr
          153 78 143 95 vstem
          490 32 callgsubr
          27 28 20 11 20 12 15 hvcurveto
          136 19 79 81 160 vvcurveto
          433 -95 -438 vlineto
          -118 -70 -61 -20 callgsubr
          -69 61 118 vhcurveto
          438 -95 -433 vlineto
          -185 105 -79 174 -1 vhcurveto
          -18 -20 -13 -25 -35 0 callsubr
          endchar
        </CharString>
        <CharString name="Uring">
          -38 callsubr
          45 45 102 45 hstemhm
          79 95 91 45 102 45 91 95 hintmask 00000000
          hintmask 11111111
          361 711 -80 callgsubr
          hintmask 11011111
          136 -121 rmoveto
          -438 vlineto
          -105 callgsubr
          433 vlineto
          endchar
        </CharString>
        <CharString name="Utilde">
          -38 callsubr
          98 63 callgsubr
          23 -25 callsubr
          24 95 -33 callsubr
          24 -182 rmoveto
          -438 vlineto
          -105 callgsubr
          433 vlineto
          endchar
        </CharString>
        <CharString name="V">
          -16 0 95 591 -20 hstem
          16 635 vstem
          271 hmoveto
          125 hlineto
          255 686 rlineto
          -98 hlineto
          -214 -591 rlineto
          -5 hlineto
          -215 591 rlineto
          -103 hlineto
          endchar
        </CharString>
        <CharString name="W">
          49 callsubr
          hstem
          11 922 vstem
          604 hmoveto
          -97 callgsubr
        </CharString>
        <CharString name="Wacute">
          49 callsubr
          50 132 hstem
          11 922 vstem
          434 -79 callgsubr
          84 -868 rmoveto
          -97 callgsubr
        </CharString>
        <CharString name="Wcircumflex">
          49 callsubr
          47 135 hstem
          11 922 vstem
          529 -80 callsubr
          132 -812 rmoveto
          -97 callgsubr
        </CharString>
        <CharString name="Wdieresis">
          49 callsubr
          87 95 hstem
          335 87 100 87 vstem
          335 -52 callsubr
          82 -868 rmoveto
          -97 callgsubr
        </CharString>
        <CharString name="Wgrave">
          49 callsubr
          50 132 hstem
          11 922 vstem
          434 -44 callgsubr
          278 -865 rmoveto
          -97 callgsubr
        </CharString>
        <CharString name="X">
          41 callsubr
          hstem
          5 657 vstem
          545 hmoveto
          117 hlineto
          -271 360 rlineto
          0 244 325 1 vvcurveto
          -114 hlineto
          -1 -188 -249 0 vhcurveto
          -186 250 rlineto
          -118 hlineto
          246 -327 -270 -359 rlineto
          115 hlineto
          212 283 rlineto
          endchar
        </CharString>
        <CharString name="Y">
          41 callsubr
          hstem
          287 95 vstem
          287 hmoveto
          -91 callsubr
          endchar
        </CharString>
        <CharString name="Y.loclGUA">
          -10 callsubr
          -4 callgsubr
          319 95 vstem
          486 294 -99 callgsubr
        </CharString>
        <CharString name="Yacute">
          -16 -9 callgsubr
          287 95 vstem
          296 -79 callgsubr
          -95 -868 rmoveto
          -91 callsubr
          endchar
        </CharString>
        <CharString name="Yacute.loclGUA">
          -10 callsubr
          70 132 -4 callgsubr
          319 95 vstem
          296 -79 callgsubr
          104 -574 -99 callgsubr
        </CharString>
        <CharString name="Ycircumflex">
          41 callsubr
          67 135 hstem
          287 27 callgsubr
          -47 -812 rmoveto
          -91 callsubr
          endchar
        </CharString>
        <CharString name="Ycircumflex.loclGUA">
          -10 callsubr
          67 135 -4 callgsubr
          319 27 callgsubr
          152 -518 -99 callgsubr
        </CharString>
        <CharString name="Ydieresis">
          41 callsubr
          107 95 hstemhm
          197 87 3 95 2 87 hintmask 00000000
          hintmask 11110100
          197 -52 callsubr
          hintmask 11101000
          -97 -868 rmoveto
          -91 callsubr
          endchar
        </CharString>
        <CharString name="Ydieresis.loclGUA">
          -10 callsubr
          107 95 hstemhm
          79 95 23 87 100 87 22 95 hintmask 00000000
          hintmask 11111111
          197 -52 callsubr
          hintmask 11111001
          102 -574 -99 callgsubr
        </CharString>
        <CharString name="Ygrave">
          -16 -9 callgsubr
          287 95 vstem
          296 -44 callgsubr
          99 -865 rmoveto
          -91 callsubr
          endchar
        </CharString>
        <CharString name="Ygrave.loclGUA">
          -10 callsubr
          70 132 -4 callgsubr
          319 95 vstem
          296 -44 callgsubr
          298 -571 -99 callgsubr
        </CharString>
        <CharString name="Z">
          -72 0 83 520 83 hstem
          23 566 vstem
          23 hmoveto
          -81 callgsubr
          endchar
        </CharString>
        <CharString name="Zacute">
          -72 0 83 520 83 50 132 hstem
          23 566 vstem
          268 -79 callgsubr
          -331 -868 rmoveto
          -81 callgsubr
          endchar
        </CharString>
        <CharString name="Zacute.loclPLK">
          -72 0 83 520 83 50 132 hstem
          23 566 vstem
          268 736 -26 callsubr
          -271 -868 rmoveto
          -81 callgsubr
          endchar
        </CharString>
        <CharString name="Zcaron">
          -72 0 83 520 83 47 135 hstem
          23 566 vstem
          264 733 -100 callsubr
          -135 -868 rmoveto
          -81 callgsubr
          endchar
        </CharString>
        <CharString name="Zdotaccent">
          -72 0 83 520 83 87 95 hstem
          262 87 vstem
          262 35 callgsubr
          -239 -868 rmoveto
          -81 callgsubr
          endchar
        </CharString>
        <CharString name="a">
          -75 callsubr
          -51 callsubr
          hintmask 10111010
          549 4 -70 callsubr
          hintmask 10110110
          45 callgsubr
          23 -39 -56 vhcurveto
          -58 vlineto
          hintmask 10111010
          -102 callsubr
          hintmask 01111010
          -62 callgsubr
          hintmask 10111010
          -87 callgsubr
        </CharString>
        <CharString name="aacute">
          -12 callgsubr
          -11 callgsubr
          223 -719 -103 callsubr
        </CharString>
        <CharString name="abreve">
          -75 callsubr
          51 callsubr
          -51 callsubr
          hintmask 1011011010000000
          423 58 callgsubr
          hintmask 1011101010000000
          -57 callsubr
          hintmask 1011011010000000
          -98 callgsubr
          39 callsubr
          vhcurveto
          hintmask 1011010110000000
          45 callgsubr
          23 -39 -56 vhcurveto
          -58 vlineto
          hintmask 1011011010000000
          -102 callsubr
          hintmask 0111011010000000
          -62 callgsubr
          hintmask 1011011010000000
          -87 callgsubr
        </CharString>
        <CharString name="acircumflex">
          -75 callsubr
          50 135 -56 56 -51 callsubr
          hintmask 1011101010000000
          335 588 -105 callsubr
          hintmask 1011010110000000
          -29 callgsubr
          271 -663 rmoveto
          -104 callsubr
          hintmask 1011101010000000
          -102 callsubr
          hintmask 0111101010000000
          -62 callgsubr
          hintmask 1011010110000000
          -62 callsubr
          hintmask 1011101010000000
          -101 callsubr
          endchar
        </CharString>
        <CharString name="acute">
          62 callgsubr
          75 183 vstem
          75 -84 callsubr
          endchar
        </CharString>
        <CharString name="acute.loclPLK">
          62 callgsubr
          105 123 vstem
          105 31 callgsubr
          endchar
        </CharString>
        <CharString name="adieresis">
          -75 callsubr
          90 95 -40 callgsubr
          -6 87 100 87 -29 88 hintmask 1011100101000000
          141 21 callgsubr
          hintmask 1011100110000000
          -75 callgsubr
          hintmask 1011101001000000
          221 -73 callgsubr
          hintmask 1011110101000000
          -102 callsubr
          hintmask 0111100101000000
          -62 callgsubr
          hintmask 1011101001000000
          -62 callsubr
          hintmask 1011110101000000
          -101 callsubr
          endchar
        </CharString>
        <CharString name="ae">
          206 -50 callgsubr
          -40 callgsubr
          241 91 279 92 hintmask 11110110
          477 239 30 callgsubr
          hintmask 11101110
          24 callgsubr
          hintmask 11110110
          -55 callgsubr
        </CharString>
        <CharString name="aeacute">
          206 -50 callgsubr
          53 132 -40 callgsubr
          241 91 279 92 hintmask 11111011
          407 -84 callsubr
          -16 -484 30 callgsubr
          hintmask 11110111
          24 callgsubr
          hintmask 11111011
          -55 callgsubr
        </CharString>
        <CharString name="agrave">
          -12 callgsubr
          59 callgsubr
          417 -716 -103 callsubr
        </CharString>
        <CharString name="amacron">
          -75 callsubr
          101 72 57 callgsubr
          125 639 -53 callsubr
          424 -707 -103 callsubr
        </CharString>
        <CharString name="ampersand">
          -16 -12 75 249 73 238 75 hstemhm
          43 91 -76 90 327 88 hintmask 11110100
          563 311 rmoveto
          85 74 -173 -194 hlineto
          -85 -55 -43 -111 -105 -70 37 90 97 78 25 82 vhcurveto
          59 73 -61 hlineto
          hintmask 11101100
          -76 -68 39 81 85 75 33 87 96 69 -37 -85 hvcurveto
          -9 88 18 vlineto
          114 -104 74 -148 -152 -101 -66 -122 -81 46 -44 61 -29 vhcurveto
          -4 vlineto
          hintmask 11110100
          -70 -22 -52 -55 -91 vvcurveto
          -122 107 -74 151 172 90 81 125 vhcurveto
          endchar
        </CharString>
        <CharString name="aogonek">
          -182 65 105 73 -57 57 -47 callgsubr
          -51 callsubr
          hintmask 11011101
          549 32 callgsubr
          25 26 hvcurveto
          hintmask 10111101
          57 55 8 30 5 vhcurveto
          hintmask 11011011
          -104 callsubr
          hintmask 11011101
          -102 callsubr
          6 -29 15 -22 22 -13 rrcurveto
          -28 -22 -22 -29 -44 vvcurveto
          -69 51 -21 43 23 22 5 9 24 vhcurveto
          -163 407 rmoveto
          -38 vlineto
          -94 -79 -46 -74 -66 -39 20 60 82 104 16 154 vhcurveto
          endchar
        </CharString>
        <CharString name="approxequal">
          -134 69 92 -32 92 62 92 -32 92 hstemhm
          38 473 hintmask 00000000
          hintmask 01101000
          511 355 rmoveto
          23 callgsubr
          hintmask 01101000
          90 callgsubr
          hintmask 10011000
          -214 vmoveto
          23 callgsubr
          hintmask 10011000
          90 callgsubr
          endchar
        </CharString>
        <CharString name="aring">
          -75 callsubr
          28 45 102 45 -40 callgsubr
          35 45 102 45 12 86 callsubr
          hintmask 1011111011100000
          278 566 -80 callgsubr
          hintmask 1011010110100000
          220 -658 rmoveto
          -104 callsubr
          hintmask 1011011010100000
          -102 callsubr
          hintmask 0111011010100000
          -62 callgsubr
          hintmask 1011010110100000
          -62 callsubr
          hintmask 1011011010100000
          -101 callsubr
          endchar
        </CharString>
        <CharString name="aringacute">
          -75 callsubr
          28 45 102 45 24 132 -40 callgsubr
          35 45 102 45 12 86 callsubr
          hintmask 1011111101110000
          241 782 -97 callsubr
          -49 -348 rmoveto
          60 36 43 53 hvcurveto
          hintmask 1011010101110000
          53 -36 43 -60 -60 -36 -43 -53 vhcurveto
          hintmask 1011111101110000
          -53 36 -43 60 vhcurveto
          hintmask 1011110101110000
          51 96 rmoveto
          -28 -21 -23 -30 -30 -21 23 28 28 21 23 30 30 21 -23 -28 vhcurveto
          hintmask 1011010011010000
          220 -658 rmoveto
          -104 callsubr
          hintmask 1011010101010000
          -102 callsubr
          hintmask 0111010101010000
          -62 callgsubr
          hintmask 1011010011010000
          -62 callsubr
          hintmask 1011010101010000
          -101 callsubr
          endchar
        </CharString>
        <CharString name="arrowboth">
          317 216 73 hstem
          42 917 30 callsubr
          -550 hlineto
          53 44 callgsubr
          -53 137 rlineto
          550 hlineto
          -58 -137 rlineto
          endchar
        </CharString>
        <CharString name="arrowdown">
          78 callgsubr
          240 -208 25 callgsubr
          737 -73 -737 85 callsubr
          endchar
        </CharString>
        <CharString name="arrowleft">
          317 216 73 hstem
          42 918 vstem
          223 216 rmoveto
          737 73 -737 hlineto
          58 44 callgsubr
          endchar
        </CharString>
        <CharString name="arrowright">
          317 216 73 hstem
          41 918 30 callsubr
          -737 -73 737 hlineto
          -58 -137 rlineto
          endchar
        </CharString>
        <CharString name="arrowup">
          78 callgsubr
          214 -208 rmoveto
          73 737 hlineto
          137 -58 4 callgsubr
          58 rlineto
          endchar
        </CharString>
        <CharString name="arrowupdn">
          -183 -206 917 hstem
          213 73 vstem
          239 -206 25 callgsubr
          550 vlineto
          137 -53 4 callgsubr
          53 rlineto
          -550 85 callsubr
          endchar
        </CharString>
        <CharString name="arrowupdnbse">
          -183 -233 48 hstem
          213 73 vstem
          239 -136 25 callgsubr
          480 vlineto
          137 -53 4 callgsubr
          53 rlineto
          -480 85 callsubr
          -1 -294 rmoveto
          350 48 -350 hlineto
          endchar
        </CharString>
        <CharString name="asciicircum">
          -214 609 77 0 -20 hstemhm
          25 420 hintmask 01100000
          355 294 rmoveto
          90 hlineto
          -157 392 rlineto
          -107 hlineto
          -156 -392 rlineto
          90 hlineto
          hintmask 10100000
          119 315 rlineto
          endchar
        </CharString>
        <CharString name="asciitilde">
          -99 223 93 -32 93 hstemhm
          41 502 hintmask 00000000
          hintmask 10100000
          543 296 rmoveto
          93 vlineto
          0 -60 -73 -85 vhcurveto
          hintmask 01100000
          -78 -58 61 -76 hhcurveto
          -97 -48 -73 0 hvcurveto
          -93 vlineto
          0 60 73 85 vhcurveto
          hintmask 10100000
          78 58 -61 76 hhcurveto
          97 48 73 0 hvcurveto
          endchar
        </CharString>
        <CharString name="asterisk">
          -294 686 -20 hstem
          31 323 vstem
          217 481 rmoveto
          96 -74 41 71 -112 46 112 47 -41 70 -96 -73 17 118 rlineto
          -83 hlineto
          17 -119 -96 74 -41 -70 112 -47 -112 -46 41 -71 96 74 -17 -119 rlineto
          83 hlineto
          endchar
        </CharString>
        <CharString name="at">
          332 -153 59 116 65 162 66 140 66 118 59 hstemhm
          57 66 188 83 -61 81 202 80 198 65 hintmask 1111111011000000
          666 -126 rmoveto
          64 vlineto
          -18 -40 -92 -14 -51 hhcurveto
          -246 -114 119 236 255 153 123 245 220 153 -93 -224 -185 -80 -50 -67 -32 -19 11 27 hvcurveto
          258 vlineto
          88 -58 50 -117 vhcurveto
          hintmask 1111110111000000
          -110 -78 -45 -88 -8 0 -6 1 -6 hvcurveto
          80 11 hlineto
          37 23 39 76 83 20 -34 -48 vhcurveto
          -58 vlineto
          hintmask 1111111011000000
          -175 -130 -28 -132 -115 96 -19 56 65 55 24 39 33 hvcurveto
          5 hlineto
          -37 11 28 -25 69 hhcurveto
          96 134 72 227 268 -186 109 -251 -251 -214 -117 -319 -289 163 -126 263 48 89 11 16 46 hvcurveto
          -50 375 rmoveto
          -44 vlineto
          -79 -68 -39 -63 -62 -29 18 55 75 90 14 132 vhcurveto
          endchar
        </CharString>
        <CharString name="atilde">
          -75 callsubr
          81 73 -42 73 -40 callgsubr
          -33 -25 callsubr
          -55 86 callsubr
          hintmask 1011011001000000
          48 callsubr
          hintmask 1011100011000000
          -83 callsubr
          hintmask 1011010010100000
          -72 callsubr
          hintmask 1011101001000000
          -58 callsubr
          hintmask 1011011001000000
          -57 callgsubr
          hintmask 1011010100100000
          108 -73 callgsubr
          hintmask 1011011000100000
          -102 callsubr
          hintmask 0111011000100000
          -62 callgsubr
          hintmask 1011010100100000
          -62 callsubr
          hintmask 1011011000100000
          -101 callsubr
          endchar
        </CharString>
        <CharString name="b">
          -12 73 -40 48 callgsubr
          hstemhm
          67 88 275 91 hintmask 00000000
          hintmask 01111100
          67 hmoveto
          66 hlineto
          hintmask 10111100
          11 71 rlineto
          6 hlineto
          -55 35 60 -28 68 hhcurveto
          129 79 82 193 28 callgsubr
          72 130 129 39 73 67 callgsubr
        </CharString>
        <CharString name="backslash">
          90 callsubr
          206 -49 rmoveto
          71 hlineto
          -206 784 rlineto
          -70 hlineto
          endchar
        </CharString>
        <CharString name="bar">
          68 callgsubr
          -173 rmoveto
          78 896 -78 hlineto
          endchar
        </CharString>
        <CharString name="braceleft">
          66 callgsubr
          41 65 17 75.5 hintmask 10110100
          292 -159 rmoveto
          57 vlineto
          -40 -49 12 59 -1 hvcurveto
          -7 206 rlineto
          hintmask 11111100
          68 -3 -22 40 -64 hhcurveto
          10 vlineto
          hintmask 10110100
          64 22 40 68 3 hvcurveto
          7 206 rlineto
          59 1 49 12 40 hhcurveto
          57 vlineto
          -89 -80 -22 -126 hvcurveto
          -197 vlineto
          hintmask 10111100
          -45 -44 -15 -38 vhcurveto
          hintmask 11111100
          -84 vlineto
          hintmask 11110100
          38 44 -15 -45 hvcurveto
          -197 vlineto
          hintmask 10110100
          -126 80 -22 89 vhcurveto
          endchar
        </CharString>
        <CharString name="braceright">
          66 callgsubr
          135.5 75.5 17 65 hintmask 10111000
          42 -102 rmoveto
          -57 vlineto
          89 80 22 126 hvcurveto
          hintmask 11111000
          197 vlineto
          hintmask 11111100
          45 44 15 38 vhcurveto
          hintmask 10111100
          84 vlineto
          hintmask 10111000
          -38 -44 15 45 hvcurveto
          197 vlineto
          126 -80 22 -89 vhcurveto
          -57 vlineto
          40 49 -12 -59 1 hvcurveto
          7 -206 rlineto
          hintmask 10111100
          -68 3 22 -40 64 hhcurveto
          -10 vlineto
          hintmask 11111000
          -64 -22 -40 -68 -3 hvcurveto
          -7 -206 rlineto
          hintmask 10111000
          -59 -1 -49 -12 -40 hhcurveto
          endchar
        </CharString>
        <CharString name="bracketleft">
          -405 -161 65 766 65 hstem
          63 79 vstem
          63 -161 rmoveto
          188 65 -109 766 109 65 -188 hlineto
          endchar
        </CharString>
        <CharString name="bracketright">
          -405 -161 65 766 65 hstem
          136 79 vstem
          27 -161 rmoveto
          188 896 -188 -65 109 -766 -109 hlineto
          endchar
        </CharString>
        <CharString name="breve">
          -350 606 64 -64 117 hstemhm
          21 291 hintmask 01100000
          312 58 callgsubr
          hintmask 10100000
          -57 callsubr
          hintmask 01100000
          -98 callgsubr
          endchar
        </CharString>
        <CharString name="brokenbar">
          68 callgsubr
          357 rmoveto
          78 366 -78 hlineto
          -896 vmoveto
          78 366 -78 hlineto
          endchar
        </CharString>
        <CharString name="bullet">
          -333 220 247 hstem
          52 247 vstem
          299 343 rmoveto
          68 -56 56 -68 -68 -55 -56 -68 -68 55 -55 68 68 56 55 68 vhcurveto
          endchar
        </CharString>
        <CharString name="c">
          -183 -56 callgsubr
          hstem
          35 91 259 90 vstem
          475 195 -91 callgsubr
        </CharString>
        <CharString name="cacute">
          -183 -26 callgsubr
          259 90 vstem
          59 callsubr
          177 -528 -91 callgsubr
        </CharString>
        <CharString name="cacute.loclPLK">
          -183 -26 callgsubr
          259 90 vstem
          212 31 callgsubr
          237 -528 -91 callgsubr
        </CharString>
        <CharString name="caron">
          -350 588 135 hstem
          19 295 vstem
          125 588 -100 callsubr
          endchar
        </CharString>
        <CharString name="ccaron">
          -183 -56 callgsubr
          50 135 hstem
          35 91 259 90 vstem
          208 588 -100 callsubr
          373 -528 -91 callgsubr
        </CharString>
        <CharString name="ccedilla">
          -183 62 callsubr
          25 72 -51 -21 23 -21 474 73 hstemhm
          35 91 174 72 13 90 -13 callsubr
          hintmask 1010011111000000
          210 -77 rmoveto
          -41 callsubr
          hintmask 0100011101000000
          -49 vlineto
          hintmask 1010011111000000
          -44 callsubr
          hintmask 1000101101000000
          4 25 rlineto
          137 7 54 93 106 vvcurveto
          -85 hlineto
          hintmask 1001001101000000
          -87 -33 -47 -90 -99 -42 57 145 145 44 57 97 92 26 -43 -91 vhcurveto
          90 hlineto
          134 -61 73 -147 -158 -74 -86 -189 vhcurveto
          hintmask 1000011101000000
          -171 58 -86 129 -15 vhcurveto
          endchar
        </CharString>
        <CharString name="ccircumflex">
          -183 -56 callgsubr
          50 135 -56 56 hstemhm
          35 91 259 90 hintmask 11101100
          46 callgsubr
          hintmask 11011100
          -29 callgsubr
          225 -472 -91 callgsubr
        </CharString>
        <CharString name="cdotaccent">
          -183 -56 callgsubr
          90 95 hstem
          35 91 80 87 92 90 vstem
          206 21 callgsubr
          269 -528 -91 callgsubr
        </CharString>
        <CharString name="cedilla">
          -350 63 callsubr
          88 hstemhm
          193 72 hintmask 10110000
          103 -77 rmoveto
          -41 callsubr
          hintmask 01110000
          -49 vlineto
          hintmask 10110000
          -44 callsubr
          8 47 rlineto
          -62 hlineto
          endchar
        </CharString>
        <CharString name="cent">
          723 -20 hstem
          50 91 117 51 91 90 vstem
          258 -49 rmoveto
          51 117 hlineto
          130 11 51 92 103 vvcurveto
          -85 hlineto
          -78 -26 -46 -70 -9 vhcurveto
          401 vlineto
          70 -8 21 -43 -81 vvcurveto
          90 hlineto
          125 -54 72 -127 9 vhcurveto
          107 -51 -107 vlineto
          -142 -8 -66 -87 -179 vvcurveto
          -180 64 -86 144 -9 vhcurveto
          476 vmoveto
          -402 vlineto
          -82 9 -35 59 133 vvcurveto
          132 36 60 81 9 vhcurveto
          endchar
        </CharString>
        <CharString name="circumflex">
          -350 588 135 -56 56 hstemhm
          19 295 hintmask 10100000
          224 588 -105 callsubr
          hintmask 01100000
          -29 callgsubr
          endchar
        </CharString>
        <CharString name="colon">
          87 callgsubr
          310 108 hstem
          90 100 vstem
          90 418 -18 callgsubr
          -526 vmoveto
          100 108 -100 hlineto
          endchar
        </CharString>
        <CharString name="comma">
          87 callgsubr
          hstem
          89 100 vstem
          89 -134 rmoveto
          -43 callsubr
          endchar
        </CharString>
        <CharString name="copyright">
          54 -12 47 99 55 308 56 98 47 hstem
          13 49 129 69 198 68 148 -45 callgsubr
          158 257 rmoveto
          -64 hlineto
          -67 -26 -36 -68 -76 -32 44 110 111 34 43 74 70 20 -32 -70 vhcurveto
          68 hlineto
          102 -46 56 -112 -121 -56 -66 -144 -144 55 -65 122 114 44 74 84 vhcurveto
          endchar
        </CharString>
        <CharString name="currency">
          102 79 338 79 hstem
          33 82 326 82 vstem
          427 157 rmoveto
          55 -58 45 45 -54 56 rlineto
          34 42 16 54 55 vvcurveto
          55 -16 56 -34 39 vhcurveto
          55 54 -48 48 -57 -56 rlineto
          33 -38 -54 18 -53 hhcurveto
          -53 -54 -18 -33 -38 hvcurveto
          -57 56 -48 -48 55 -54 rlineto
          -34 -39 -16 -56 -55 vvcurveto
          -55 16 -54 34 -42 vhcurveto
          -54 -56 45 -45 55 58 rlineto
          -37 40 55 -18 54 hhcurveto
          54 55 18 37 40 hvcurveto
          -149 24 rmoveto
          -91 -72 79 91 89 73 79 90 90 73 -79 -89 -91 -72 -79 -91 hvcurveto
          endchar
        </CharString>
        <CharString name="d">
          -12 73 -40 48 callgsubr
          hstemhm
          35 91 275 88 hintmask 00000000
          hintmask 01111100
          423 hmoveto
          66 723 -88 -257 -6 hlineto
          -21 callgsubr
          hvcurveto
          hintmask 10111100
          -3 callgsubr
          endchar
        </CharString>
        <CharString name="dagger">
          686 -20 hstem
          240 74 vstem
          230 -170 rmoveto
          94 hlineto
          -20 601 18 callgsubr
          rlineto
          endchar
        </CharString>
        <CharString name="daggerdbl">
          686 -20 hstem
          241.5 71 vstem
          304 27 rmoveto
          206 -17 rlineto
          93 vlineto
          -206 -18 20 175 -20 171 18 callgsubr
          -20 -171 20 -175 -205 18 rlineto
          -93 vlineto
          205 17 -17 -197 rlineto
          88 hlineto
          endchar
        </CharString>
        <CharString name="dcaron">
          -58 -12 73 -40 67 callsubr
          -48 196 -91 91 37 -20 hstemhm
          35 91 275 88 56 85 -13 callsubr
          hintmask 0110111110000000
          423 hmoveto
          66 723 -88 -257 -6 hlineto
          -21 callgsubr
          hvcurveto
          hintmask 1001011110000000
          -16 callsubr
          vhcurveto
          6 hlineto
          133 419 rmoveto
          44 hlineto
          hintmask 1010111110000000
          2 callsubr
          -314 -534 -39 callsubr
        </CharString>
        <CharString name="dcroat">
          -12 73 -40 67 callsubr
          58 62 -62 127 hstemhm
          35 91 275 88 hintmask 00000000
          hintmask 01101110
          423 hmoveto
          66 596 66 hlineto
          hintmask 10110110
          62 -66 vlineto
          hintmask 10101110
          65 -88 vlineto
          hintmask 10110110
          -65 -140 vlineto
          hintmask 10101110
          -62 140 -130 -24 callsubr
          -147 -10 -39 callsubr
        </CharString>
        <CharString name="degree">
          -283 428 53 163 54 hstem
          63 53 163 54 vstem
          198 428 rmoveto
          75 60 60 75 75 -60 60 -75 -75 -60 -60 -75 -75 60 -60 75 hvcurveto
          53 vmoveto
          -45 -37 37 45 45 37 36 45 45 36 -36 -45 -45 -36 -37 -45 hvcurveto
          endchar
        </CharString>
        <CharString name="dieresis">
          -350 628 95 hstem
          30 87 100 87 vstem
          30 -51 callgsubr
          endchar
        </CharString>
        <CharString name="divide">
          -134 0 100 114 83 114 100 hstem
          224 100 vstem
          224 411 rmoveto
          100 100 -100 hlineto
          -186 -297 rmoveto
          473 83 -473 hlineto
          186 -297 rmoveto
          100 100 -100 hlineto
          endchar
        </CharString>
        <CharString name="dollar">
          67 73 403 73 107 -20 hstemhm
          55 88 -73 91 88 51 85 87 -78 91 hintmask 11110101
          249 -49 rmoveto
          51 117 hlineto
          108 7 77 50 104 vvcurveto
          108 -97 29 -88 22 vhcurveto
          154 vlineto
          hintmask 11101110
          63 -9 22 -35 -35 vvcurveto
          -9 86 vlineto
          2 1 10 7 vvcurveto
          73 -61 63 -111 7 vhcurveto
          107 -51 -107 vlineto
          -110 -9 -69 -55 -85 vvcurveto
          -101 92 -26 87 -23 vhcurveto
          -177 vlineto
          hintmask 11110101
          -61 7 -45 28 58 vvcurveto
          10 -87 vlineto
          -2 -1 -6 -14 vvcurveto
          -74 56 -73 138 -7 vhcurveto
          hintmask 11101101
          476 vmoveto
          -142 vlineto
          -50 15 -38 17 40 vvcurveto
          26 15 38 73 6 vhcurveto
          51 -403 rmoveto
          163 vlineto
          53 -17 41 -21 -48 vvcurveto
          -45 -41 -26 -53 -6 vhcurveto
          endchar
        </CharString>
        <CharString name="dotaccent">
          -350 628 95 hstem
          123 87 vstem
          123 21 callgsubr
          endchar
        </CharString>
        <CharString name="dotbelowcomb">
          -683 3 callsubr
          hstem
          -210 87 vstem
          -210 -173 -94 callsubr
          endchar
        </CharString>
        <CharString name="dotlessi">
          -8 callsubr
          hstem
          95 88 vstem
          95 hmoveto
          -15 callgsubr
        </CharString>
        <CharString name="e">
          -50 callgsubr
          hstem
          43 callgsubr
          vstem
          130 239 rmoveto
          -107 callsubr
          endchar
        </CharString>
        <CharString name="eacute">
          -50 callgsubr
          53 132 hstem
          43 callgsubr
          vstem
          -11 callgsubr
          -196 -484 rmoveto
          -107 callsubr
          endchar
        </CharString>
        <CharString name="ebreve">
          -50 callgsubr
          51 callsubr
          hstemhm
          43 callgsubr
          hintmask 11101110
          423 58 callgsubr
          hintmask 11110110
          -57 callsubr
          hintmask 11101110
          -98 callgsubr
          -293 -484 rmoveto
          -107 callsubr
          endchar
        </CharString>
        <CharString name="ecaron">
          -50 callgsubr
          50 135 hstem
          43 callgsubr
          vstem
          236 588 -100 callsubr
          -484 vmoveto
          -107 callsubr
          endchar
        </CharString>
        <CharString name="ecircumflex">
          -50 callgsubr
          50 135 -56 56 hstemhm
          43 callgsubr
          hintmask 11110110
          335 588 -105 callsubr
          hintmask 11101110
          -29 callgsubr
          -148 -428 rmoveto
          -107 callsubr
          endchar
        </CharString>
        <CharString name="edieresis">
          -50 callgsubr
          90 95 hstemhm
          39 93 9 87 100 87 10 92 hintmask 11110110
          141 -51 callgsubr
          hintmask 11111111
          -198 -484 rmoveto
          -107 callsubr
          endchar
        </CharString>
        <CharString name="edotaccent">
          -50 callgsubr
          90 95 hstem
          39 93 102 87 104 92 vstem
          234 21 callgsubr
          -104 -484 rmoveto
          -107 callsubr
          endchar
        </CharString>
        <CharString name="egrave">
          -50 callgsubr
          53 132 hstem
          43 callgsubr
          vstem
          59 callgsubr
          -2 -481 rmoveto
          -107 callsubr
          endchar
        </CharString>
        <CharString name="eight">
          -12 73 253 73 238 73 hstemhm
          38 91 -73 88 266 88 -72 91 hintmask 00000000
          hintmask 11101010
          403 352 rmoveto
          hintmask 11101100
          63 33 32 57 65 vvcurveto
          105 -75 86 -146 -146 -75 -86 -105 -65 32 -57 63 -33 vhcurveto
          hintmask 11110010
          -80 -31 -33 -59 -74 vvcurveto
          -110 70 -90 169 170 70 90 110 vhcurveto
          hintmask 11101010
          74 -33 59 -81 31 vhcurveto
          hintmask 11101100
          7 154 rmoveto
          -74 -52 -45 -81 -81 -52 45 74 74 51 45 82 82 51 -45 -74 vhcurveto
          hintmask 11110010
          16 -318 rmoveto
          -78 -51 -49 -98 -97 -51 49 78 78 51 48 97 98 51 -48 -78 vhcurveto
          endchar
        </CharString>
        <CharString name="ellipsis">
          317 0 108 hstem
          117 100 233 100 232 100 vstem
          117 hmoveto
          100 108 -100 hlineto
          333 -108 -18 callgsubr
          332 -108 -18 callgsubr
          endchar
        </CharString>
        <CharString name="emacron">
          -50 callgsubr
          101 72 hstem
          43 callgsubr
          vstem
          134 639 -53 callsubr
          -4 -472 rmoveto
          -107 callsubr
          endchar
        </CharString>
        <CharString name="emdash">
          317 233 75 hstem
          0 1000 vstem
          233 vmoveto
          1000 75 -1000 hlineto
          endchar
        </CharString>
        <CharString name="endash">
          233 75 hstem
          0 556 vstem
          233 vmoveto
          556 75 -556 hlineto
          endchar
        </CharString>
        <CharString name="eng">
          33 callgsubr
          465 73 -12 -20 42 callgsubr
          hintmask 10110110
          313 -113 rmoveto
          hintmask 01110110
          -57 vlineto
          hintmask 10110110
          -6 17 28 -6 24 hhcurveto
          85 25 61 60 hvcurveto
          420 vlineto
          131 -64 48 -100 -72 -64 -24 -59 -41 vhcurveto
          -7 hlineto
          hintmask 10101110
          -53 callgsubr
          hintmask 10110110
          -64 callsubr
          -418 vlineto
          -31 -16 -17 -31 vhcurveto
          endchar
        </CharString>
        <CharString name="eogonek">
          -182 65 105 -35 callsubr
          hstemhm
          39 93 221 79 -7 92 hintmask 00000000
          hintmask 11111100
          517 32 callgsubr
          32 33 45 27 45 19 23 hvcurveto
          hintmask 11111010
          25 30 13 39 1 49 rrcurveto
          -86 hlineto
          -85 -64 -33 -77 -105 -49 57 121 -6 vhcurveto
          387 44 hlineto
          183 -79 72 -148 -168 -83 -78 callgsubr
          82 -86 169 vhcurveto
          hintmask 11111100
          31 30 5 10 27 hvcurveto
          -12 -18 -13 -32 -38 vvcurveto
          -75 50 -22 48 22 21 5 9 23 vhcurveto
          hintmask 11111010
          -92 480 46 callsubr
        </CharString>
        <CharString name="equal">
          -99 106 83 129 84 hstem
          56 473 vstem
          56 318 rmoveto
          473 84 -473 hlineto
          -296 vmoveto
          61 callgsubr
        </CharString>
        <CharString name="equivalence">
          -100 7 83 129 84 129 84 hstem
          57 472 vstem
          57 432 rmoveto
          472 84 -472 hlineto
          -297 vmoveto
          472 84 -472 hlineto
          -296 vmoveto
          472 83 -472 hlineto
          endchar
        </CharString>
        <CharString name="estimated">
          -83 -12 42 218 42 206 42 hstem
          45 108 298 108 vstem
          526 118 rmoveto
          -34 21 rlineto
          -67 -34 -68 -42 -88 hhcurveto
          -62 -50 19 34 -37 hvcurveto
          165 406 5 vlineto
          165 -98 120 -159 -160 -97 -116 -159 -159 97 -116 160 104 78 50 80 42 vhcurveto
          -75 323 rmoveto
          -151 -298 152 vlineto
          34 37 50 20 62 hhcurveto
          61 50 -20 -35 38 hvcurveto
          endchar
        </CharString>
        <CharString name="eth">
          -56 callgsubr
          -12 -20 100 58 -58 117 -101 63 -17 55 55 callgsubr
          hintmask 1100010110000000
          367 619 rmoveto
          93 6 rlineto
          60 vlineto
          -152 -10 rlineto
          hintmask 1100100110000000
          -18 17 -18 15 -21 16 rrcurveto
          -98 hlineto
          -2 -4 rlineto
          hintmask 1100001110000000
          24 -18 23 -16 21 -17 rrcurveto
          hintmask 1101000110000000
          -99 -8 rlineto
          hintmask 1010100110000000
          -60 vlineto
          152 12 29 -28 23 -29 20 -29 rlinecurve
          hintmask 1100010110000000
          7 -24 -26 5 -30 hhcurveto
          -133 -96 -81 -194 -189 84 -86 159 159 84 86 189 145 -62 114 -92 97 hvcurveto
          -89 -558 37 callsubr
          endchar
        </CharString>
        <CharString name="exclam">
          87 callgsubr
          578 -20 hstemhm
          90 100 -94 88 hintmask 11010000
          109 171 57 callsubr
          hintmask 11100000
          7 -686 -18 callgsubr
          endchar
        </CharString>
        <CharString name="exclamdbl">
          -183 0 108 578 -20 hstemhm
          90 100 -94 88 126 100 -94 88 hintmask 11010100
          109 171 57 callsubr
          246 -515 57 callsubr
          hintmask 11101000
          -213 -686 -18 callgsubr
          220 -108 -18 callgsubr
          endchar
        </CharString>
        <CharString name="exclamdown">
          -350 418 108 hstemhm
          117 100 -94 88 hintmask 00000000
          hintmask 11000000
          117 418 -18 callgsubr
          hintmask 10100000
          -7 -686 rmoveto
          114 hlineto
          -26 515 rlineto
          -62 hlineto
          endchar
        </CharString>
        <CharString name="f">
          91 callsubr
          453 73 132 73 hstem
          86 88 vstem
          86 hmoveto
          88 453 101 73 -101 84 hlineto
          -54 callgsubr
          vlineto
          endchar
        </CharString>
        <CharString name="f_f">
          21 -21 453 73 132 73 hstem
          86 88 190 88 vstem
          501 658 rmoveto
          52 61 hlineto
          7 -18 -30 5 -27 hhcurveto
          -90 -24 -61 -60 hvcurveto
          -84 -190 84 vlineto
          -54 callgsubr
          -453 88 453 190 -453 88 453 101 73 -101 84 vlineto
          31 16 17 33 vhcurveto
          endchar
        </CharString>
        <CharString name="fi">
          -183 21 -21 453 73 99 98 -65 73 hstemhm
          86 88 171 88 hintmask 11101100
          86 hmoveto
          88 453 101 73 -101 hlineto
          hintmask 11011100
          84 vlineto
          -54 callgsubr
          vlineto
          hintmask 11101100
          259 172 rmoveto
          88 98 -88 hlineto
          -723 vmoveto
          -15 callgsubr
        </CharString>
        <CharString name="five">
          -12 72 312 74 156 84 hstem
          36 90 297 91 vstem
          161 602 rmoveto
          317 84 -390 hlineto
          -28 -380 81 -13 rlineto
          47 28 54 32 61 hhcurveto
          83 56 -53 -95 -111 -61 -53 -86 -85 -65 59 94 hvcurveto
          -90 hlineto
          -140 95 -85 145 147 91 85 151 151 -94 71 -118 -77 -49 -28 -25 -31 vhcurveto
          endchar
        </CharString>
        <CharString name="fiveeighths">
          69 callsubr
          -36 55 134 56 63 56 12 -20 hstemhm
          40 63 -43.5 57.5 115 64 239 54 callgsubr
          hintmask 1101110011100100
          108 -12 rmoveto
          72 hlineto
          hintmask 1101101011100100
          -21 callsubr
          hintmask 1101110011100100
          -534 -68 rmoveto
          158 56 -211 hlineto
          -15 -186 54 -9 rlineto
          14 17 17 6 23 hhcurveto
          40 29 -18 -45 -48 -26 -23 -37 hvcurveto
          hintmask 1101110101100100
          -37 -29 24 41 hvcurveto
          -63 hlineto
          -74 51 -46 78 78 49 46 80 81 -51 38 -63 vhcurveto
          hintmask 1101110011100100
          -30 -22 -7 -9 -16 hvcurveto
          623 -372 rmoveto
          hintmask 1110110011011000
          -28 callsubr
          hintmask 1101110011100100
          -2 callsubr
          33 -19 31 -34 18 vhcurveto
          hintmask 1110110011011000
          -27 callgsubr
          hintmask 1101110011100100
          -35 callgsubr
        </CharString>
        <CharString name="fl">
          -183 21 -21 453 73 132 65 -65 73 hstemhm
          86 88 171 88 hintmask 11011100
          86 hmoveto
          88 453 101 73 -101 84 hlineto
          -54 callgsubr
          vlineto
          259 -453 rmoveto
          88 hlineto
          hintmask 11101100
          723 -88 vlineto
          endchar
        </CharString>
        <CharString name="florin">
          -183 73 512 73 183 73 hstem
          39 479 vstem
          262 402 rmoveto
          -99 -464 rlineto
          -31 -7 -19 -17 -33 hhcurveto
          -52 hlineto
          -13 -61 rlineto
          -7 16 29 -5 27 hhcurveto
          90 37 61 60 13 hvcurveto
          99 464 rlineto
          101 hlineto
          15 73 rlineto
          -101 hlineto
          29 135 rlineto
          31 7 19 17 33 hhcurveto
          52 hlineto
          13 61 rlineto
          7 -16 -29 5 -27 hhcurveto
          -90 -37 -61 -60 -13 hvcurveto
          -29 -135 rlineto
          -77 hlineto
          -15 -73 rlineto
          endchar
        </CharString>
        <CharString name="four">
          21 -21 169 73 456 -20 hstem
          344 88 vstem
          344 hmoveto
          88 169 91 73 -91 354 -47 hlineto
          -14 -52 -10 -33 -17 -44 rrcurveto
          -225 -233 vlineto
          41 55 110 217 42 184 rrcurveto
          -95 hlineto
          -38 -168 -63 -145 -83 -142 rrcurveto
          -74 319 vlineto
          endchar
        </CharString>
        <CharString name="fraction">
          14 callsubr
        </CharString>
        <CharString name="franc">
          21 -21 312 73 -2 93 135 75 hstemhm
          79 90 131 88 hintmask 11011100
          300 hmoveto
          88 249 hlineto
          hintmask 10111100
          99 57 35 62 vhcurveto
          37 85 hlineto
          0 -19 8 -28 vhcurveto
          hintmask 11011100
          -66 -32 -47 -44 -16 hvcurveto
          -6 hlineto
          hintmask 10111100
          -10 79 rlineto
          -67 hlineto
          hintmask 11011100
          -79 -131 226 258 75 -348 -686 90 312 131 vlineto
          endchar
        </CharString>
        <CharString name="g">
          -36 callgsubr
          -8 callgsubr
          -13 callsubr
          hintmask 1111100010000000
          161 -182 -54 callsubr
          hintmask 1111010100000000
          -84 callgsubr
          hintmask 1111001010000000
          -90 callgsubr
          hintmask 1111010100000000
          -43 callgsubr
          hintmask 1111100100000000
          29 callgsubr
          hintmask 1111100010000000
          58 callsubr
          hintmask 1111001100000000
          -77 callsubr
          hintmask 1111100010000000
          -89 callsubr
        </CharString>
        <CharString name="g_tilde.loclGUA">
          -36 callgsubr
          81 6 callgsubr
          18 88 -58 90 -73 88 -39 -25 callsubr
          -36 87 -40 87 -13 callsubr
          hintmask 1111010010100000
          48 callsubr
          hintmask 1111100001100000
          -83 callsubr
          hintmask 1111010001010000
          -72 callsubr
          hintmask 1111100010100000
          -58 callsubr
          hintmask 1111010010100000
          -57 callgsubr
          hintmask 1111011000001000
          -280 -12 callsubr
          hintmask 1111010100010000
          -84 callgsubr
          hintmask 1111010010001000
          -90 callgsubr
          hintmask 1111010100010000
          -43 callgsubr
          hintmask 1111011000010000
          29 callgsubr
          hintmask 1111011000001000
          58 callsubr
          hintmask 1111010010010000
          -77 callsubr
          hintmask 1111011000001000
          -89 callsubr
        </CharString>
        <CharString name="gbreve">
          -36 callgsubr
          51 callsubr
          -8 callgsubr
          hintmask 1111010011000000
          423 58 callgsubr
          hintmask 1111100011000000
          -57 callsubr
          hintmask 1111010011000000
          -98 callgsubr
          hintmask 1111011000100000
          -262 -12 callsubr
          hintmask 1111010101000000
          -84 callgsubr
          hintmask 1111010010100000
          -90 callgsubr
          hintmask 1111010101000000
          -43 callgsubr
          hintmask 1111011001000000
          29 callgsubr
          hintmask 1111011000100000
          58 callsubr
          hintmask 1111010011000000
          -77 callsubr
          hintmask 1111011000100000
          -89 callsubr
        </CharString>
        <CharString name="gcaron">
          -36 callgsubr
          50 135 -8 callgsubr
          hintmask 1111100110000000
          236 588 -100 callsubr
          hintmask 1111110001000000
          31 -86 callgsubr
        </CharString>
        <CharString name="gcircumflex">
          -36 callgsubr
          50 23 -23 135 -56 56 -8 callgsubr
          hintmask 1111010001100000
          335 588 -105 callsubr
          hintmask 1111001100010000
          -29 callgsubr
          -117 -849 -54 callsubr
          hintmask 1111010010100000
          -84 callgsubr
          hintmask 1111100001010000
          -90 callgsubr
          hintmask 1111010010100000
          -43 callgsubr
          hintmask 1111010100100000
          29 callgsubr
          hintmask 1111001100010000
          58 callsubr
          hintmask 1111010001100000
          -77 callsubr
          hintmask 1111010100010000
          -89 callsubr
        </CharString>
        <CharString name="gcommaaccent">
          -36 callgsubr
          70 91 hstemhm
          18 88 -58 90 -73 88 84 88 80 87 -40 87 hintmask 1111100111000000
          237 608 rmoveto
          88 91 -37 hlineto
          37 81 rlineto
          -45 hlineto
          -43 -88 rlineto
          hintmask 1111110010100000
          -76 -874 -54 callsubr
          hintmask 1111101011000000
          -84 callgsubr
          hintmask 1111100110100000
          -90 callgsubr
          hintmask 1111101011000000
          -43 callgsubr
          hintmask 1111110011000000
          29 callgsubr
          hintmask 1111110010100000
          58 callsubr
          hintmask 1111100111000000
          -77 callsubr
          hintmask 1111110010100000
          -89 callsubr
        </CharString>
        <CharString name="gdotaccent">
          -36 callgsubr
          90 95 hstemhm
          18 88 -58 90 -73 88 81 87 84 87 -40 87 hintmask 1111100111000000
          234 21 callgsubr
          hintmask 1111110010100000
          -73 -12 callsubr
          hintmask 1111101011000000
          -84 callgsubr
          hintmask 1111100110100000
          -90 callgsubr
          hintmask 1111101011000000
          -43 callgsubr
          hintmask 1111110011000000
          29 callgsubr
          hintmask 1111110010100000
          58 callsubr
          hintmask 1111100111000000
          -77 callsubr
          hintmask 1111110010100000
          -89 callsubr
        </CharString>
        <CharString name="germandbls">
          -72 0 74 276 73 239 73 hstemhm
          64 89 312 90 -64 90 hintmask 11110100
          237 hmoveto
          124 hlineto
          122 98 89 117 92 -61 67 -84 26 hvcurveto
          4 vlineto
          hintmask 11111000
          72 24 47 60 75 vvcurveto
          105 -93 76 -148 -135 -115 -63 -156 vhcurveto
          -516 89 518 vlineto
          95 61 49 99 98 54 -48 -66 -70 -60 -55 -74 vhcurveto
          -94 -73 104 hlineto
          hintmask 11110100
          84 66 -60 -77 -75 -62 -64 -78 hvcurveto
          -114 hlineto
          endchar
        </CharString>
        <CharString name="grave">
          62 callgsubr
          75 183 vstem
          183 -45 callsubr
          endchar
        </CharString>
        <CharString name="greater">
          -99 4 500 hstem
          448 81 vstem
          55 4 rmoveto
          474 196 rlineto
          107 vlineto
          -474 197 rlineto
          -90 vlineto
          393 -160 -393 -160 rlineto
          endchar
        </CharString>
        <CharString name="greaterequal">
          -134 0 83 hstem
          430 81 vstem
          38 124 rmoveto
          473 196 rlineto
          107 vlineto
          -473 197 rlineto
          -90 vlineto
          392 -160 -392 -160 rlineto
          -214 vmoveto
          61 callgsubr
        </CharString>
        <CharString name="guillemotleft">
          74 callgsubr
          221 126 rmoveto
          71 hlineto
          hintmask 10100000
          13 callgsubr
          352 -200 rmoveto
          71 hlineto
          13 callgsubr
          endchar
        </CharString>
        <CharString name="guillemotright">
          74 callgsubr
          64 126 rmoveto
          71 hlineto
          hintmask 10100000
          14 callgsubr
          66 -200 rmoveto
          71 hlineto
          14 callgsubr
          endchar
        </CharString>
        <CharString name="guilsinglleft">
          -350 -19 callgsubr
          hstem
          55 228 vstem
          212 126 rmoveto
          71 hlineto
          13 callgsubr
          endchar
        </CharString>
        <CharString name="guilsinglright">
          -350 -19 callgsubr
          hstem
          50 228 vstem
          50 126 rmoveto
          71 hlineto
          14 callgsubr
          endchar
        </CharString>
        <CharString name="h">
          21 48 callgsubr
          hstem
          67 1 callsubr
          vstem
          404 hmoveto
          -11 callsubr
          256 -88 -723 88 311 hlineto
          -64 callsubr
          endchar
        </CharString>
        <CharString name="hbar">
          21 67 callsubr
          58 62 -62 127 42 callgsubr
          hintmask 11011100
          404 hmoveto
          -11 callsubr
          129 140 hlineto
          hintmask 11101100
          62 -140 vlineto
          hintmask 11011100
          65 -88 vlineto
          hintmask 11101100
          -65 -66 vlineto
          hintmask 11011100
          -62 66 -596 88 311 vlineto
          -64 callsubr
          endchar
        </CharString>
        <CharString name="hcircumflex">
          21 48 callgsubr
          45 135 hstemhm
          67 75 callgsubr
          hintmask 11111100
          168 748 -105 callsubr
          -29 callgsubr
          293 -827 rmoveto
          -11 callsubr
          hlineto
          hintmask 11101100
          256 -88 -723 88 311 vlineto
          -64 callsubr
          endchar
        </CharString>
        <CharString name="hookabovecomb">
          -683 591 56 callgsubr
          -199 56 -14 72 hintmask 11100000
          -199 652 -18 callsubr
          hintmask 11010000
          -102 callgsubr
          -17 callsubr
          hvcurveto
          endchar
        </CharString>
        <CharString name="house">
          -79 0 40 hstem
          77 39 372 39 vstem
          77 hmoveto
          450 310 hlineto
          -225 253 -225 -253 rlineto
          411 -17 rmoveto
          -253 -372 253 vlineto
          186 208 rlineto
          endchar
        </CharString>
        <CharString name="hungarumlaut">
          62 callgsubr
          27 299 vstem
          27 591 -60 callgsubr
          endchar
        </CharString>
        <CharString name="hyphen">
          38 callgsubr
        </CharString>
        <CharString name="i">
          -461 21 5 callsubr
          -723 vmoveto
          -15 callgsubr
        </CharString>
        <CharString name="i.loclTRK">
          -8 callsubr
          122 95 hstem
          95 88 vstem
          95 21 callgsubr
          -723 vmoveto
          -15 callgsubr
        </CharString>
        <CharString name="iacute">
          -405 21 -7 callsubr
          hstem
          95 88 vstem
          85 -84 callsubr
          -76 -723 -23 callsubr
        </CharString>
        <CharString name="iacute_j.loclNLD">
          -183 20 callgsubr
          85 132 hstemhm
          95 88 162 88 hintmask 10111110
          85 -84 callsubr
          180 -132 -97 callsubr
          -342 -723 rmoveto
          35 callsubr
          159 -639 rmoveto
          hintmask 01111110
          -57 vlineto
          hintmask 10111110
          -85 callsubr
        </CharString>
        <CharString name="ibreve">
          -8 callsubr
          100 64 -64 117 hstemhm
          95 88 hintmask 11011000
          285 58 callgsubr
          hintmask 11101000
          -57 callsubr
          hintmask 11011000
          -98 callgsubr
          -190 -723 -23 callsubr
        </CharString>
        <CharString name="icircumflex">
          -8 callsubr
          82 135 -56 56 hstemhm
          95 88 hintmask 11101000
          197 588 -105 callsubr
          hintmask 11011000
          -29 callgsubr
          -45 -667 -23 callsubr
        </CharString>
        <CharString name="idieresis">
          -8 callsubr
          122 95 hstemhm
          2 87 6 88 6 87 hintmask 00000000
          hintmask 11110100
          2 -51 callgsubr
          hintmask 11101000
          -94 -723 -23 callsubr
        </CharString>
        <CharString name="igrave">
          -405 21 -7 callsubr
          hstem
          95 88 vstem
          117 -45 callsubr
          86 -720 -23 callsubr
        </CharString>
        <CharString name="ij">
          -239 20 callgsubr
          119 98 hstemhm
          67 88 134 88 hintmask 10111110
          67 3 callgsubr
          222 -98 rmoveto
          88 98 -88 hlineto
          -222 -723 rmoveto
          35 callsubr
          131 -639 rmoveto
          hintmask 01111110
          -57 vlineto
          hintmask 10111110
          -85 callsubr
        </CharString>
        <CharString name="imacron">
          -8 callsubr
          133 72 hstem
          95 88 vstem
          12 639 rmoveto
          254 72 -254 hlineto
          83 -711 -23 callsubr
        </CharString>
        <CharString name="infinity">
          30 142 72 163 76 hstem
          47 74 470 74 vstem
          356 238 rmoveto
          -51 42 49 -45 71 hhcurveto
          92 55 69 86 86 -56 70 -92 -70 -49 -46 -51 -42 hvcurveto
          51 -43 -49 46 -69 hhcurveto
          -92 -56 -70 -86 -86 55 -69 92 70 49 45 51 43 hvcurveto
          -47 59 rmoveto
          -46 -36 -34 -37 -45 hhcurveto
          -40 -33 36 45 45 34 37 40 44 35 -36 -44 35 hvcurveto
          93 hmoveto
          44 36 34 36 45 hhcurveto
          40 34 -37 -45 -45 -33 -36 -40 -45 -35 37 46 -36 hvcurveto
          endchar
        </CharString>
        <CharString name="integral">
          -409 -141 50 901 49 hstem
          91 99 vstem
          33 -91 rmoveto
          -50 vlineto
          86 71 17 95 153 -28 629 0 hvcurveto
          79 callgsubr
          -154 27 -626 0 hvcurveto
          -44 -36 -14 -49 vhcurveto
          endchar
        </CharString>
        <CharString name="integralbt">
          -79 -250 49 hstem
          274 71 vstem
          187 -201 rmoveto
          -49 vlineto
          86 72 18 94 80 -7 477 -7 440 hvcurveto
          -74 hlineto
          17 -1003 rlineto
          -43 -38 -14 -49 vhcurveto
          endchar
        </CharString>
        <CharString name="integraltp">
          -79 810 49 hstem
          259 71 vstem
          273 -250 rmoveto
          74 hlineto
          -17 1003 rlineto
          79 callgsubr
          -80 7 -477 7 -440 hvcurveto
          endchar
        </CharString>
        <CharString name="intersection">
          36 21 -21 604 72 hstem
          94 73 385 73 vstem
          552 hmoveto
          73 410 hlineto
          147 -119 119 -147 -147 -118 -119 -147 vhcurveto
          -410 73 411 vlineto
          106 86 87 106 106 87 -87 -106 vhcurveto
          endchar
        </CharString>
        <CharString name="iogonek">
          -461 -182 65 138 5 callsubr
          120 -891 rmoveto
          51 -32 vlineto
          -40 -13 28 30 24 19 33 34 2 hvcurveto
          -5 callsubr
          -526 vlineto
          -24 -23 -19 -27 -42 0 callsubr
          endchar
        </CharString>
        <CharString name="itilde">
          -8 callsubr
          113 6 callgsubr
          -24 65 54 88 55 65 hintmask 11010110
          303 51 callgsubr
          hintmask 11101110
          -23 -2 -11 -8 -15 -50 -43 31 -56 hhcurveto
          12 callsubr
          -208 -723 -23 callsubr
        </CharString>
        <CharString name="j">
          -461 1 callgsubr
          639 -20 119 98 hstemhm
          67 88 hintmask 10111000
          67 3 callgsubr
          -91 -836 rmoveto
          hintmask 01111000
          -57 vlineto
          hintmask 10111000
          -85 callsubr
        </CharString>
        <CharString name="jcircumflex">
          -461 1 callgsubr
          639 -20 82 135 -56 56 hstemhm
          67 88 hintmask 10110100
          169 588 -105 callsubr
          hintmask 10101100
          -29 callgsubr
          -136 -780 rmoveto
          hintmask 01110100
          -57 vlineto
          hintmask 10110100
          -85 callsubr
        </CharString>
        <CharString name="k">
          86 callgsubr
          217 -20 hstem
          67 -13 callgsubr
          455 -88 -723 88 165 vlineto
          96 91 rlineto
          endchar
        </CharString>
        <CharString name="kcommaaccent">
          -183 65 callgsubr
          526 -20 217 -20 hstem
          67 88 76 -13 callgsubr
          455 -88 -723 88 165 vlineto
          96 91 rlineto
          -20 -486 rmoveto
          -71 callgsubr
        </CharString>
        <CharString name="kgreenlandic">
          86 callgsubr
          hstem
          67 -13 callgsubr
          258 -88 -526 88 165 vlineto
          96 91 rlineto
          endchar
        </CharString>
        <CharString name="l">
          -461 21 78 callsubr
          723 -88 hlineto
          endchar
        </CharString>
        <CharString name="lacute">
          -461 21 -21 723 -20 48 132 hstemhm
          67 88 hintmask 00000000
          hintmask 11110000
          73 751 -97 callsubr
          -92 -883 rmoveto
          88 hlineto
          hintmask 11010000
          723 -88 vlineto
          endchar
        </CharString>
        <CharString name="lcaron">
          -391 21 -21 490 196 -91 91 -91 128 hstemhm
          67 88 52 85 hintmask 10101100
          67 hmoveto
          88 hlineto
          hintmask 10011100
          723 -88 vlineto
          hintmask 11001100
          140 -233 rmoveto
          44 hlineto
          hintmask 10101100
          2 callsubr
          endchar
        </CharString>
        <CharString name="lcommaaccent">
          -461 -149 91 79 78 callsubr
          723 -88 hlineto
          -953 vmoveto
          -71 callgsubr
        </CharString>
        <CharString name="ldot">
          -400 21 -21 303 108 312 -20 hstem
          67 88 51 100 vstem
          67 hmoveto
          88 723 -88 hlineto
          139 -420 -18 callgsubr
          endchar
        </CharString>
        <CharString name="less">
          -99 4 500 hstem
          55 81 vstem
          55 200 rmoveto
          474 -196 rlineto
          90 vlineto
          -393 160 393 160 rlineto
          90 vlineto
          -474 -197 rlineto
          endchar
        </CharString>
        <CharString name="lessequal">
          -134 0 83 hstem
          38 81 vstem
          38 320 rmoveto
          473 -196 rlineto
          90 vlineto
          -392 160 392 160 rlineto
          90 vlineto
          -473 -197 rlineto
          -427 vmoveto
          61 callgsubr
        </CharString>
        <CharString name="lira">
          0 79 124 72 76 72 202 53 callgsubr
          124 rlineto
          166 72 -166 76 166 72 -165 92 18 callsubr
          -76 -90 -72 90 -76 -90 -72 90 -124 -76 vlineto
          endchar
        </CharString>
        <CharString name="logicalnot">
          -99 360 93 hstem
          445 84 vstem
          445 197 rmoveto
          84 256 -473 -93 389 hlineto
          endchar
        </CharString>
        <CharString name="longs">
          91 callsubr
          453 73 132 73 hstem
          86 88 vstem
          86 hmoveto
          88 610 hlineto
          -54 callgsubr
          vlineto
          endchar
        </CharString>
        <CharString name="lozenge">
          -99 -132 71 717 71 0 -20 hstemhm
          60 464 hintmask 10110000
          524 298 rmoveto
          -178 429 rlineto
          -107 hlineto
          -179 -429 179 -430 rlineto
          107 hlineto
          -54 71 rmoveto
          -142 359 rlineto
          hintmask 11010000
          142 358 142 -358 rlineto
          endchar
        </CharString>
        <CharString name="lslash">
          -461 21 78 callsubr
          356 hlineto
          66 55 rlineto
          77 vlineto
          -66 -55 rlineto
          290 -88 -363 vlineto
          -67 -56 rlineto
          -77 vlineto
          67 56 rlineto
          endchar
        </CharString>
        <CharString name="m">
          150 22 callgsubr
          hstemhm
          67 88 219 88 219 88 hintmask 11011100
          681 hmoveto
          88 379 hlineto
          117 -63 42 -92 -64 -62 -28 -55 -37 vhcurveto
          -6 hlineto
          59 -24 -50 24 -62 hhcurveto
          -66 -55 -26 -57 -37 hvcurveto
          -7 hlineto
          hintmask 10111100
          -53 callgsubr
          hintmask 11011100
          97 59 57 68 53 39 -21 -81 vhcurveto
          -363 88 311 vlineto
          97 57 57 68 53 41 -21 -81 vhcurveto
          endchar
        </CharString>
        <CharString name="macron">
          38 callsubr
        </CharString>
        <CharString name="minus">
          -99 214 83 hstem
          56 472 vstem
          56 214 rmoveto
          472 83 -472 hlineto
          endchar
        </CharString>
        <CharString name="minute">
          -496 515 171 hstem
          49 129 vstem
          49 515 47 callgsubr
          endchar
        </CharString>
        <CharString name="mu">
          -41 callgsubr
        </CharString>
        <CharString name="multiply">
          -99 45 421 hstem
          81 421 vstem
          291 197 rmoveto
          152 -152 59 59 -152 151 152 152 -59 59 -152 -152 -151 152 -59 -59 152 -152 -152 -151 59 -59 rlineto
          endchar
        </CharString>
        <CharString name="n">
          22 callgsubr
          42 callgsubr
          hintmask 11011000
          404 hmoveto
          -67 callgsubr
          hintmask 10111000
          -53 callgsubr
          hintmask 11011000
          -64 callsubr
          endchar
        </CharString>
        <CharString name="nacute">
          22 callgsubr
          85 132 42 callgsubr
          hintmask 11011100
          -11 callgsubr
          78 -723 rmoveto
          -67 callgsubr
          hintmask 10111100
          -53 callgsubr
          hintmask 11011100
          -64 callsubr
          endchar
        </CharString>
        <CharString name="nacute.loclPLK">
          22 callgsubr
          85 132 42 callgsubr
          hintmask 11011100
          240 31 callgsubr
          138 -723 rmoveto
          -67 callgsubr
          hintmask 10111100
          -53 callgsubr
          hintmask 11011100
          -64 callsubr
          endchar
        </CharString>
        <CharString name="napostrophe">
          -79 21 67 callsubr
          -48 36 69 91 hstemhm
          0 85 30 75 callgsubr
          hintmask 10111110
          490 vmoveto
          44 hlineto
          2 callsubr
          418 -595 rmoveto
          65 callsubr
          hintmask 11010110
          131 -64 48 -100 -72 -64 -24 -59 -41 vhcurveto
          -7 hlineto
          hintmask 10110110
          -53 callgsubr
          hintmask 11010110
          -64 callsubr
          endchar
        </CharString>
        <CharString name="ncaron">
          22 callgsubr
          82 135 42 callgsubr
          hintmask 11011100
          236 588 -100 callsubr
          274 -723 rmoveto
          -67 callgsubr
          hintmask 10111100
          -53 callgsubr
          hintmask 11011100
          -64 callsubr
          endchar
        </CharString>
        <CharString name="ncommaaccent">
          -149 91 79 42 callsubr
          hstemhm
          67 88 79 88 82 88 hintmask 11101110
          404 hmoveto
          -67 callgsubr
          hintmask 11011110
          -53 callgsubr
          hintmask 11101110
          -64 callsubr
          -170 -583 rmoveto
          -71 callgsubr
        </CharString>
        <CharString name="nine">
          -12 73 184 72 308 73 hstemhm
          38 91 -68 90 277 90 hintmask 00000000
          hintmask 11101100
          151 201 rmoveto
          -90 hlineto
          -121 61 -92 147 162 87 95 280 254 -95 81 -157 vhcurveto
          hintmask 11110100
          -131 -97 -87 -139 -127 72 -100 151 68 60 27 48 39 hvcurveto
          -159 -2 -30 -100 -122 hhcurveto
          hintmask 11101100
          -82 -41 51 89 hvcurveto
          hintmask 11110100
          122 116 rmoveto
          -99 -45 67 84 86 45 71 99 99 46 -69 -84 -86 -46 -69 -99 hvcurveto
          endchar
        </CharString>
        <CharString name="notequal">
          -134 106 83 129 84 hstem
          38 473 vstem
          228 106 rmoveto
          283 83 -239 hlineto
          69 129 rlineto
          170 84 -125 hlineto
          44 82 rlineto
          -66 hlineto
          -44 -82 rlineto
          -282 -84 237 hlineto
          -69 -129 rlineto
          -168 -83 124 hlineto
          -43 -81 rlineto
          66 hlineto
          endchar
        </CharString>
        <CharString name="ntilde">
          22 callgsubr
          113 6 callgsubr
          67 88 -41 -25 callsubr
          -37 86 callsubr
          hintmask 1100110100000000
          48 callsubr
          hintmask 1101001100000000
          -83 callsubr
          hintmask 1100101010000000
          -72 callsubr
          hintmask 1101010100000000
          -58 callsubr
          hintmask 1100110100000000
          -57 callgsubr
          hintmask 1100110010000000
          -37 -723 rmoveto
          -67 callgsubr
          hintmask 1010110010000000
          -53 callgsubr
          hintmask 1100110010000000
          -64 callsubr
          endchar
        </CharString>
        <CharString name="numbersign">
          9 -21 191 76 155 76 212 -20 hstem
          10 533 vstem
          278 -12 rmoveto
          77 hlineto
          42 191 rlineto
          101 76 -85 hlineto
          34 155 rlineto
          96 76 -79 80 callgsubr
          -153 80 callgsubr
          -102 -76 85 hlineto
          -34 -155 rlineto
          -96 -76 80 hlineto
          -42 -191 rlineto
          77 hlineto
          42 191 rlineto
          153 hlineto
          50 231 rmoveto
          -34 -155 rlineto
          -153 hlineto
          34 155 rlineto
          endchar
        </CharString>
        <CharString name="o">
          -56 callgsubr
          77 callgsubr
          vstem
          278 -12 rmoveto
          -106 callsubr
          endchar
        </CharString>
        <CharString name="oacute">
          -26 callgsubr
          304 91 vstem
          -11 callgsubr
          -48 -735 rmoveto
          -106 callsubr
          endchar
        </CharString>
        <CharString name="oacute.loclPLK">
          -26 callgsubr
          304 91 vstem
          240 31 callgsubr
          12 -735 rmoveto
          -106 callsubr
          endchar
        </CharString>
        <CharString name="obreve">
          -56 callgsubr
          51 callsubr
          55 callgsubr
          hintmask 11011100
          423 58 callgsubr
          hintmask 11101100
          -57 callsubr
          hintmask 11011100
          -98 callgsubr
          -145 -735 rmoveto
          -106 callsubr
          endchar
        </CharString>
        <CharString name="ocircumflex">
          -56 callgsubr
          50 135 -56 56 55 callgsubr
          hintmask 11101100
          335 588 -105 callsubr
          hintmask 11011100
          -29 callgsubr
          -679 vmoveto
          -106 callsubr
          endchar
        </CharString>
        <CharString name="odieresis">
          -56 callgsubr
          90 95 hstemhm
          35 91 15 87 100 87 15 91 hintmask 00000000
          hintmask 11111110
          141 -51 callgsubr
          hintmask 11110010
          -50 -735 rmoveto
          -106 callsubr
          endchar
        </CharString>
        <CharString name="oe">
          261 -50 callgsubr
          77 callgsubr
          295 92 vstem
          521 239 rmoveto
          387 44 hlineto
          183 -79 72 -148 -97 -68 -31 -65 -41 vhcurveto
          64 -40 -66 32 -91 hhcurveto
          -159 -84 -78 callgsubr
          84 -86 159 91 66 31 64 40 hvcurveto
          -64 41 68 -31 97 hhcurveto
          127 100 63 128 hvcurveto
          -86 hlineto
          -85 -64 -33 -77 -105 -49 57 121 -6 vhcurveto
          -243 -178 37 callsubr
          538 251 46 callsubr
        </CharString>
        <CharString name="ogonek">
          -350 -182 65 -65 194 hstemhm
          81 78 hintmask 10100000
          244 32 callgsubr
          27 28 hvcurveto
          hintmask 01100000
          28 23 28 15 14 vhcurveto
          4 -60 vlineto
          hintmask 10100000
          -29 -26 -27 -29 -49 0 callsubr
          endchar
        </CharString>
        <CharString name="ograve">
          -26 callgsubr
          304 91 vstem
          59 callgsubr
          146 -732 rmoveto
          -106 callsubr
          endchar
        </CharString>
        <CharString name="ohorn">
          -56 callgsubr
          40 108 55 callgsubr
          -15 120 hintmask 00000000
          hintmask 11110100
          506 686 -81 callsubr
          hintmask 11111000
          -22 callsubr
          hintmask 11110100
          16 callsubr
          hintmask 11111000
          -72 callgsubr
          endchar
        </CharString>
        <CharString name="ohungarumlaut">
          -26 callgsubr
          304 91 vstem
          170 591 -60 callgsubr
          -93 -735 rmoveto
          -106 callsubr
          endchar
        </CharString>
        <CharString name="omacron">
          -56 callgsubr
          101 72 77 callgsubr
          vstem
          131 639 -53 callsubr
          147 -723 rmoveto
          -106 callsubr
          endchar
        </CharString>
        <CharString name="one">
          0 73 488 52 73 -20 hstem
          271 88 vstem
          94 hmoveto
          429 73 -164 613 -34 hlineto
          -69 -38 -103 -29 -60 -6 rrcurveto
          -52 178 -488 -177 vlineto
          endchar
        </CharString>
        <CharString name="oneeighth">
          69 callsubr
          -30 12 callgsubr
          333 54 callgsubr
          hintmask 1101010110010000
          108 -12 rmoveto
          72 hlineto
          hintmask 1101001110010000
          -16 callgsubr
          hintmask 1101010110010000
          302 -30 vlineto
          hintmask 1101100110010000
          47 callsubr
          hintmask 1101010110010000
          64 callgsubr
          686 -205 rmoveto
          hintmask 1110010101100000
          -28 callsubr
          hintmask 1101010110010000
          -2 callsubr
          33 -19 31 -34 18 vhcurveto
          hintmask 1110010101100000
          -27 callgsubr
          hintmask 1101010110010000
          -35 callgsubr
        </CharString>
        <CharString name="onehalf">
          151 0 56 -47 -21 320 56 -36 12 callgsubr
          326 71 callgsubr
          -13 callsubr
          hintmask 0101001101100000
          108 -12 rmoveto
          72 hlineto
          -16 callgsubr
          hintmask 1001010101100000
          302 -30 vlineto
          hintmask 1001100101100000
          47 callsubr
          hintmask 1001010110000000
          64 callgsubr
          477 -384 25 callsubr
          hintmask 1010010101100000
          -42 callsubr
          hintmask 1001010110000000
          -50 -37 -53 -38 -62 vvcurveto
          endchar
        </CharString>
        <CharString name="onequarter">
          74 callsubr
          12 callgsubr
          467 63 -13 callsubr
          hintmask 0101001110000000
          108 -12 rmoveto
          72 hlineto
          -16 callgsubr
          hintmask 1001010110000000
          302 -30 vlineto
          hintmask 1001100110000000
          47 callsubr
          hintmask 1001010110000000
          64 callgsubr
          618 -384 rmoveto
          63 hlineto
          hintmask 0011010110000000
          82 45 vlineto
          hintmask 1001010110000000
          23 callsubr
          hintmask 0011010110000000
          69 callgsubr
        </CharString>
        <CharString name="ordfeminine">
          -313 362 53 -50 50 116 53 99 52 hstemhm
          23 72 -55 69 143 69 hintmask 00000000
          hintmask 01110110
          371 374 rmoveto
          41 -28 vlineto
          -10 -12 6 16 hvcurveto
          198 vlineto
          63 -45 37 -92 -84 -60 -34 -66 vhcurveto
          -17 69 10 vlineto
          27 17 28 55 56 15 -23 -33 vhcurveto
          -43 vlineto
          hintmask 10111010
          -132 -97 -21 -100 -87 74 -14 45 48 41 17 29 25 hvcurveto
          hintmask 01111010
          -26 9 25 -17 34 hhcurveto
          hintmask 01110110
          21 18 4 5 8 hvcurveto
          hintmask 10111010
          -119 157 rmoveto
          -31 vlineto
          -57 -50 -28 -44 -41 -22 13 38 54 65 11 92 vhcurveto
          endchar
        </CharString>
        <CharString name="ordmasculine">
          -318 361 53 268 53 hstem
          22 73 177 71 vstem
          183 361 rmoveto
          105 55 59 128 128 -55 59 -105 -105 -56 -59 -128 -128 56 -59 105 hvcurveto
          53 vmoveto
          -63 -25 41 93 93 25 41 63 63 26 -41 -93 -93 -26 -41 -63 hvcurveto
          endchar
        </CharString>
        <CharString name="orthogonal">
          296 0 66 hstem
          177 74 vstem
          177 hmoveto
          625 66 -551 559 -74 hlineto
          endchar
        </CharString>
        <CharString name="oslash">
          -72 -56 callgsubr
          hstem
          62 91 callgsubr
          vstem
          45 -49 -68 callsubr
        </CharString>
        <CharString name="oslashacute">
          -72 22 callsubr
          132 hstem
          62 91 callgsubr
          vstem
          254 -84 callsubr
          -295 -772 -68 callsubr
        </CharString>
        <CharString name="otilde">
          -56 callgsubr
          81 6 callgsubr
          35 91 -12 -25 callsubr
          -11 91 hintmask 00000000
          hintmask 11011010
          48 callsubr
          hintmask 11100110
          -83 callsubr
          hintmask 11010101
          -72 callsubr
          hintmask 11101010
          -58 callsubr
          hintmask 11011010
          -57 callgsubr
          hintmask 11011001
          -163 -735 rmoveto
          -106 callsubr
          endchar
        </CharString>
        <CharString name="p">
          -152 -21 161 -40 callsubr
          -12 -20 hstemhm
          67 88 275 91 hintmask 11101100
          39 callgsubr
          193 -79 82 -129 -68 -60 -28 -55 -35 hvcurveto
          -6 hlineto
          hintmask 11011100
          -11 71 rlineto
          -66 hlineto
          224 -465 rmoveto
          -97 -39 73 129 hvcurveto
          hintmask 11101100
          130 39 72 97 100 39 -52 -150 vhcurveto
          hintmask 11011100
          -150 -39 -52 -100 vhcurveto
          endchar
        </CharString>
        <CharString name="paragraph">
          -146 625 61 hstem
          233 84 66 84 vstem
          383 -168 rmoveto
          84 793 61 61 -266 hlineto
          -136 -108 -58 -160 -145 105 -70 110 hvcurveto
          -421 84 793 66 vlineto
          endchar
        </CharString>
        <CharString name="parenleft">
          -350 735 -20 hstem
          60 93 vstem
          239 -157 rmoveto
          59 hlineto
          -82 122 -63 169 156 vvcurveto
          156 63 167 82 122 vhcurveto
          -59 hlineto
          -115 -120 -64 -157 -160 vvcurveto
          -168 64 -161 115 -126 vhcurveto
          endchar
        </CharString>
        <CharString name="parenright">
          -350 735 -20 hstem
          205 93 vstem
          60 -157 rmoveto
          59 hlineto
          115 123 64 158 164 vvcurveto
          164 -64 160 -115 123 vhcurveto
          -59 hlineto
          82 -119 63 -164 -152 vvcurveto
          -159 -63 -173 -82 -125 vhcurveto
          endchar
        </CharString>
        <CharString name="partialdiff">
          -189 -12 73 321 67 217 69 hstem
          46 90 225 84 vstem
          359 380 rmoveto
          -4 hlineto
          26 -13 -39 43 -69 hhcurveto
          -97 -91 -93 -152 -116 58 -100 112 148 81 148 247 250 -111 102 -113 -51 -34 -13 -16 -29 hvcurveto
          -74 vlineto
          18 25 32 16 46 hhcurveto
          87 64 -110 -142 -9 0 -19 -2 -6 hvcurveto
          -7 -81 rmoveto
          -122 -9 -46 -116 -74 hhcurveto
          -55 -32 56 84 97 48 84 64 57 36 -46 -37 11 hvcurveto
          endchar
        </CharString>
        <CharString name="percent">
          206 -12 59 -26 -21 290 59 -12 59 243 59 -12 -20 hstemhm
          61 77 150 76 162 77 150 76 hintmask 1001101111000000
          213 337 36 callsubr
          hintmask 0101011111000000
          -55 -337 rmoveto
          79 hlineto
          496 686 rlineto
          -80 hlineto
          -440 -290 rmoveto
          -60 -15 45 76 hvcurveto
          hintmask 1001101111000000
          77 15 45 60 60 15 -45 -77 vhcurveto
          hintmask 0101011111000000
          -76 -15 -45 -60 vhcurveto
          hintmask 1010101111000000
          465 -408 36 callsubr
          59 vmoveto
          -60 -15 45 76 77 15 45 60 60 15 -45 -77 -76 -15 -45 -60 hvcurveto
          endchar
        </CharString>
        <CharString name="period">
          87 callgsubr
          hstem
          91 100 vstem
          91 hmoveto
          100 108 -100 hlineto
          endchar
        </CharString>
        <CharString name="periodcentered">
          -350 303 108 hstem
          116 100 vstem
          116 303 -18 callgsubr
          endchar
        </CharString>
        <CharString name="perthousand">
          317 -14 59 -24 -21 288 59 -10 59 243 59 -12 -20 hstemhm
          18 77 130 76 71 77 130 76 44 77 130 76 -13 callsubr
          hintmask 0101101100000000
          160 337 rmoveto
          -4 callsubr
          -42 -337 rmoveto
          64 hlineto
          hintmask 0001011100000000
          375 686 rlineto
          -65 hlineto
          -332 -290 rmoveto
          -54 -11 45 76 hvcurveto
          hintmask 0000101100000000
          77 11 45 54 54 11 -45 -77 vhcurveto
          hintmask 0001011100000000
          -76 -11 -45 -54 vhcurveto
          hintmask 1010000011110000
          354 -410 rmoveto
          -4 callsubr
          327 hmoveto
          -4 callsubr
          -327 59 rmoveto
          56 callsubr
          327 hmoveto
          56 callsubr
          endchar
        </CharString>
        <CharString name="peseta">
          411 -12 72 -71 72 -40 -21 54 7 202 83 107 73 -61 73 65 83 hstemhm
          79 95 347 88 59 85 -73 91 184 87 -78 91 -13 callsubr
          hintmask 1000101111011000
          955 375 rmoveto
          86 hlineto
          2 1 10 7 vvcurveto
          78 -60 66 -113 vhcurveto
          hintmask 0010110111010100
          -31 -28 -4 -8 -25 hvcurveto
          -176 146 -68 hlineto
          -19 -146 rlineto
          -38 hlineto
          96 -17 -70 64 -121 hhcurveto
          -197 -686 95 263 102 hlineto
          122 80 75 115 10 hvcurveto
          33 -353 hlineto
          hintmask 0100110111010100
          71 callsubr
          29 6 8 17 vhcurveto
          hintmask 0001110111010100
          51 vlineto
          hintmask 1000101111010100
          -39 28 53 -27 85 hhcurveto
          111 83 49 113 hvcurveto
          198 -284 -69 115 vvcurveto
          29 14 42 74 vhcurveto
          hintmask 0100101111101000
          72 24 -40 -41 hvcurveto
          -684 -38 rmoveto
          -97 257 97 88 callsubr
          420 -285 rmoveto
          -38 hlineto
          -30 -14 16 31 hvcurveto
          hintmask 1000110111010100
          345 85 vlineto
          -9 -19 -5 -22 -24 -189 284 74 -135 vvcurveto
          -51 -45 -27 -53 vhcurveto
          hintmask 1000110111100100
          -63 -50 28 66 hvcurveto
          10 -84 vlineto
          hintmask 0100110111100100
          -2 -1 -6 -14 vvcurveto
          hintmask 0100101111101000
          -29 7 -28 16 -24 vhcurveto
          endchar
        </CharString>
        <CharString name="pi">
          7 21 -21 453 73 hstem
          172 90 201 89 vstem
          482 hmoveto
          86 hlineto
          -10 30 -6 44 82 vvcurveto
          297 97 vlineto
          10 73 rlineto
          -455 hlineto
          -96 -56 -11 -19 -28 hvcurveto
          15 -56 rlineto
          9 26 37 4 70 hhcurveto
          -3 -129 -35 -218 -42 -106 rrcurveto
          88 hlineto
          40 89 33 235 9 129 rrcurveto
          201 -306 hlineto
          -80 8 -51 11 -16 vhcurveto
          endchar
        </CharString>
        <CharString name="plus">
          -99 21 -21 213 84 hstem
          250 83 vstem
          250 hmoveto
          45 callsubr
          endchar
        </CharString>
        <CharString name="plusminus">
          -134 0 83 257 84 hstem
          233 83 vstem
          233 127 rmoveto
          45 callsubr
          -195 -340 rmoveto
          61 callgsubr
        </CharString>
        <CharString name="product">
          140 643 80 hstem
          140 95 352 94 vstem
          587 -128 rmoveto
          94 771 101 80 -741 -80 99 -771 95 771 352 hlineto
          endchar
        </CharString>
        <CharString name="q">
          -152 -21 161 -40 callsubr
          -12 -20 hstemhm
          35 91 275 88 hintmask 11101100
          401 -173 rmoveto
          88 hlineto
          hintmask 11011100
          699 -66 vlineto
          hintmask 11101100
          -11 -71 rlineto
          -6 hlineto
          55 -35 -60 28 -68 hhcurveto
          -129 -79 -82 -193 -191 81 -84 119 74 51 21 51 35 hvcurveto
          6 hlineto
          -136 1 rmoveto
          -100 -39 52 150 150 39 52 100 97 39 -72 -130 -129 -39 -73 -97 hvcurveto
          endchar
        </CharString>
        <CharString name="question">
          0 108 513 77 hstemhm
          52 91 82 100 -93 87 87 91 hintmask 11101100
          232 180 rmoveto
          87 41 hlineto
          112 178 -12 199 vvcurveto
          110 -86 68 -120 -162 -77 -92 -112 -12 3 -23 0 vhcurveto
          89 hlineto
          0 -1 11 16 vvcurveto
          46 14 89 127 107 15 -76 -36 vhcurveto
          -126 -174 -13 -134 vvcurveto
          hintmask 11110100
          -7 -236 -18 callgsubr
          endchar
        </CharString>
        <CharString name="questiondown">
          -72 -172 77 513 108 hstemhm
          86 91 81 100 -94 87 88 91 hintmask 00000000
          hintmask 11110100
          258 418 -18 callgsubr
          269 -459 rmoveto
          -89 hlineto
          0 1 -11 -16 vvcurveto
          -46 -14 -89 -126 -107 -15 76 36 vhcurveto
          hintmask 11101100
          126 174 13 134 vvcurveto
          56 -87 -41 vlineto
          -112 -178 12 -199 vvcurveto
          -110 86 -68 120 162 76 92 112 vhcurveto
          hintmask 11110100
          12 -3 23 0 vhcurveto
          endchar
        </CharString>
        <CharString name="quotedbl">
          -328 408 278 hstemhm
          46 100 62 100 hintmask 00000000
          hintmask 11100000
          72 408 31 callsubr
          188 -132 31 callsubr
          endchar
        </CharString>
        <CharString name="quotedblbase">
          -350 0 108 hstem
          42 100 52 100 vstem
          42 -134 rmoveto
          -43 callsubr
          112 -134 rmoveto
          -43 callsubr
          endchar
        </CharString>
        <CharString name="quotedblleft">
          -350 444 108 134 -20 hstem
          39 100 52 100 vstem
          39 444 13 callsubr
          152 -99 13 callsubr
          endchar
        </CharString>
        <CharString name="quotedblright">
          -350 578 108 hstem
          42 100 52 100 vstem
          42 444 rmoveto
          -43 callsubr
          112 -134 rmoveto
          -43 callsubr
          endchar
        </CharString>
        <CharString name="quoteleft">
          -461 444 108 134 -20 hstem
          66 100 vstem
          66 444 13 callsubr
          endchar
        </CharString>
        <CharString name="quotereversed">
          -461 578 108 hstem
          67 100 vstem
          115 454 rmoveto
          52 hlineto
          -40 124 rlineto
          40 108 -100 -99 hlineto
          endchar
        </CharString>
        <CharString name="quoteright">
          -461 578 108 hstem
          56 100 vstem
          56 444 rmoveto
          -43 callsubr
          endchar
        </CharString>
        <CharString name="quotesinglbase">
          -461 0 108 hstem
          61 100 vstem
          61 -134 rmoveto
          -43 callsubr
          endchar
        </CharString>
        <CharString name="quotesingle">
          -492 686 -20 hstem
          46 100 vstem
          72 408 31 callsubr
          endchar
        </CharString>
        <CharString name="r">
          -350 21 80 callsubr
          hintmask 11001000
          67 hmoveto
          88 311 hlineto
          99 62 35 67 vhcurveto
          37 hlineto
          hintmask 10011000
          85 vlineto
          hintmask 11001000
          0 -19 8 -28 -72 -35 -47 -44 -17 vhcurveto
          -6 hlineto
          hintmask 10101000
          -10 79 rlineto
          -67 hlineto
          endchar
        </CharString>
        <CharString name="racute">
          -1 callgsubr
          81 132 hstemhm
          67 88 hintmask 11001100
          129 -84 callsubr
          -148 -723 -69 callsubr
        </CharString>
        <CharString name="radical">
          -134 -148 1005 hstem
          30 518 vstem
          296 -148 rmoveto
          90 hlineto
          162 1005 rlineto
          -71 hlineto
          -137 -887 -5 21 -6 25 -10 28 rlinecurve
          -42 116 -44 115 -41 116 -162 -68 rcurveline
          20 -60 77 30 56 -147 56 -147 57 -147 rlinecurve
          endchar
        </CharString>
        <CharString name="rcaron">
          -1 callgsubr
          78 135 hstemhm
          67 88 hintmask 11001100
          125 588 -100 callsubr
          48 -723 -69 callsubr
        </CharString>
        <CharString name="rcommaaccent">
          -350 -149 91 79 -20 callsubr
          -756 vmoveto
          -71 callgsubr
        </CharString>
        <CharString name="registered">
          54 -12 47 263 56 139 56 102 47 hstem
          13 49 162 68 179 69 134 -45 callgsubr
          115 103 rmoveto
          72 hlineto
          -87 171 rlineto
          48 19 24 43 55 vvcurveto
          72 -42 51 -84 vhcurveto
          -190 -411 68 160 111 hlineto
          1 56 rmoveto
          -112 139 112 hlineto
          43 24 -23 -44 -46 -27 -26 -40 hvcurveto
          endchar
        </CharString>
        <CharString name="revlogicalnot">
          -99 360 93 hstem
          56 84 vstem
          140 360 rmoveto
          389 93 -473 -256 84 hlineto
          endchar
        </CharString>
        <CharString name="ring">
          -350 566 45 102 45 hstem
          71 45 102 45 vstem
          167 566 -80 callgsubr
          endchar
        </CharString>
        <CharString name="s">
          -183 -12 72 405 73 8 callsubr
          hintmask 00000000
          hintmask 11011000
          361 375 -65 callgsubr
          hintmask 11010100
          -49 callsubr
          hintmask 11100100
          -76 callsubr
          hintmask 11010100
          -49 callgsubr
          hintmask 11101000
          88 28 -40 -41 hvcurveto
          endchar
        </CharString>
        <CharString name="sacute">
          49 callgsubr
          53 132 8 callsubr
          hintmask 11110010
          59 callsubr
          hintmask 11101100
          63 -86 callsubr
        </CharString>
        <CharString name="sacute.loclPLK">
          49 callgsubr
          53 132 8 callsubr
          hintmask 11110010
          212 31 callgsubr
          hintmask 11101100
          123 -86 callsubr
        </CharString>
        <CharString name="scaron">
          49 callgsubr
          50 135 8 callsubr
          hintmask 11110010
          208 588 -100 callsubr
          hintmask 11101100
          259 -86 callsubr
        </CharString>
        <CharString name="scedilla">
          -183 62 callsubr
          25 71 70 callsubr
          156 72 -4 87 -78 91 -13 callsubr
          hintmask 1011110100000000
          203 -77 rmoveto
          -41 callsubr
          hintmask 0101110001000000
          -49 vlineto
          hintmask 1011110100000000
          -44 callsubr
          hintmask 1001101001000000
          4 25 rlineto
          107 8 77 49 104 -49 callgsubr
          hintmask 1001101010000000
          88 28 -40 -41 hvcurveto
          -9 86 vlineto
          2 1 10 7 vvcurveto
          78 -68 66 -125 -127 -82 -57 -93 vhcurveto
          hintmask 1001101001000000
          -49 callsubr
          hintmask 1001110001000000
          -74 -59 28 66 hvcurveto
          10 -87 vlineto
          -2 -1 -6 -14 vvcurveto
          -73 53 -70 131 -10 vhcurveto
          endchar
        </CharString>
        <CharString name="scircumflex">
          49 callgsubr
          50 135 -56 56 8 callsubr
          hintmask 11101001
          46 callgsubr
          hintmask 11010110
          -29 callgsubr
          111 -292 -65 callgsubr
          hintmask 11100101
          -49 callsubr
          hintmask 11101001
          -76 callsubr
          hintmask 11100101
          -49 callgsubr
          hintmask 11101010
          88 28 -40 -41 hvcurveto
          endchar
        </CharString>
        <CharString name="scommaaccent">
          -183 -149 91 46 89 callsubr
          88 67 -61 callgsubr
          -614 rmoveto
          -71 callgsubr
        </CharString>
        <CharString name="second">
          -329 515 171 hstem
          49 271 vstem
          49 515 47 callgsubr
          114 -171 47 callgsubr
          endchar
        </CharString>
        <CharString name="section">
          -182 72 736 72 hstemhm
          43 88 -74 94 254 94 -74 88 hintmask 00000000
          hintmask 11011000
          150 -28 rmoveto
          9 -92 vlineto
          -2 -1 -10 -7 vvcurveto
          -78 74 -66 138 146 84 57 93 66 -37 40 -47 30 vhcurveto
          hintmask 11010100
          49 25 49 45 65 207 -362 -39 136 vvcurveto
          28 13 55 112 vhcurveto
          hintmask 11011000
          100 30 -41 -41 hvcurveto
          -9 92 vlineto
          2 1 10 7 vvcurveto
          78 -74 66 -138 -146 -84 -57 -93 -66 35 -41 49 -30 vhcurveto
          hintmask 11101000
          -49 -24 -49 -45 -65 -207 362 39 -137 vvcurveto
          -27 -14 -55 -111 vhcurveto
          hintmask 11011000
          -100 -30 41 41 hvcurveto
          hintmask 11100100
          53 407 rmoveto
          106 -41 116 -25 -95 vvcurveto
          -37 -30 -28 -43 -17 vhcurveto
          -105 42 -116 25 95 vvcurveto
          37 28 28 44 16 vhcurveto
          endchar
        </CharString>
        <CharString name="semicolon">
          87 callgsubr
          310 108 hstem
          89 100 vstem
          89 418 -18 callgsubr
          -660 vmoveto
          -43 callsubr
          endchar
        </CharString>
        <CharString name="seven">
          21 -21 602 84 hstem
          144 97 vstem
          144 hmoveto
          98 hlineto
          -1 24 0 8 19 vvcurveto
          212 157 227 125 143 vhcurveto
          53 -486 -84 357 vlineto
          -111 -144 -139 -221 -237 vvcurveto
          endchar
        </CharString>
        <CharString name="seveneighths">
          69 callsubr
          272 56 12 -20 hstemhm
          117 68 333 54 callgsubr
          hintmask 1111011001000000
          91 -12 rmoveto
          72 hlineto
          hintmask 1110111001000000
          -21 callsubr
          -520 -370 rmoveto
          69 hlineto
          -1 18 0 8 9 vvcurveto
          hintmask 1111011001000000
          102 78 109 61 70 vhcurveto
          42 -260 -56 179 vlineto
          hintmask 1110111001000000
          -59 -74 -67 -104 -124 vvcurveto
          603 -149 rmoveto
          hintmask 1111010110000000
          -28 callsubr
          hintmask 1111011001000000
          -2 callsubr
          vhcurveto
          hintmask 1110111001000000
          33 -19 31 -34 18 vhcurveto
          hintmask 1111010110000000
          -27 callgsubr
          hintmask 1111011001000000
          -35 callgsubr
        </CharString>
        <CharString name="six">
          -12 73 308 72 184 73 hstemhm
          38 90 277 90 -68 91 hintmask 00000000
          hintmask 11111000
          405 485 rmoveto
          90 hlineto
          121 -61 92 -147 -162 -87 -95 -280 -254 95 -81 157 vhcurveto
          hintmask 11110100
          131 97 87 139 127 -70 100 -148 -70 -62 -27 -48 -40 hvcurveto
          159 2 30 100 122 hhcurveto
          hintmask 11111000
          82 41 -51 -89 hvcurveto
          hintmask 11110100
          -122 -424 rmoveto
          -99 -46 69 84 86 46 69 99 99 45 -67 -84 -86 -45 -71 -99 hvcurveto
          endchar
        </CharString>
        <CharString name="slash">
          90 callsubr
          1 -49 rmoveto
          71 hlineto
          205 784 rlineto
          -70 hlineto
          endchar
        </CharString>
        <CharString name="space">
          -405 endchar
        </CharString>
        <CharString name="sterling">
          0 79 225 72 249 53 callgsubr
          225 rlineto
          166 72 -165 139 18 callsubr
          -123 -90 -72 90 -225 -76 vlineto
          endchar
        </CharString>
        <CharString name="summation">
          30 -128 88 685 78 hstemhm
          59 119 -109 132 hintmask 00000000
          hintmask 11100000
          59 -128 rmoveto
          631 88 -512 4 hlineto
          310 351 rlineto
          hintmask 11010000
          -287 326 rlineto
          4 470 78 -602 -67 vlineto
          308 -357 rlineto
          hintmask 11100000
          -318 -364 rlineto
          endchar
        </CharString>
        <CharString name="t">
          -405 -11 72 392 73 hstem
          82 88 vstem
          259 3 -68 callgsubr
          endchar
        </CharString>
        <CharString name="tbar">
          -405 -11 72 202 62 128 73 hstem
          82 88 vstem
          259 3 rmoveto
          58 -45 vlineto
          -30 -14 16 31 hvcurveto
          155 89 62 -89 128 89 73 -89 146 -68 vlineto
          -19 -146 rlineto
          -65 -73 64 -128 -64 -62 64 -163 hlineto
          71 callsubr
          32 6 8 17 vhcurveto
          endchar
        </CharString>
        <CharString name="tcaron">
          -308 -11 72 392 73 1 196 -91 91 hstemhm
          82 88 117 85 hintmask 00000000
          hintmask 10101100
          287 527 rmoveto
          44 hlineto
          hintmask 11011100
          2 callsubr
          -62 -629 -68 callgsubr
          endchar
        </CharString>
        <CharString name="thorn">
          -152 -21 161 -40 callsubr
          185 -20 hstem
          67 88 275 91 vstem
          39 callgsubr
          28 callgsubr
          73 129 130 39 72 67 callgsubr
        </CharString>
        <CharString name="three">
          -12 73 251 73 240 73 hstemhm
          35 89 -74 89 275 91 -76 91 hintmask 11101010
          391 352 rmoveto
          4 vlineto
          hintmask 11101100
          65 29 49 44 81 vvcurveto
          122 -92 66 -136 -133 -94 -74 -114 vhcurveto
          -18 89 9 vlineto
          85 59 39 80 72 64 -35 -85 -81 -67 -39 -75 vhcurveto
          -75 -73 72 hlineto
          hintmask 11110010
          82 78 -25 -97 -90 -63 -39 -93 -94 -55 45 85 hvcurveto
          11 -89 -8 vlineto
          -125 87 -81 159 140 99 74 122 vhcurveto
          hintmask 11101010
          91 -55 55 -74 22 vhcurveto
          endchar
        </CharString>
        <CharString name="threeeighths">
          69 callsubr
          -30 55 105 56 99 55 hstemhm
          38 34 callgsubr
          238 54 callgsubr
          hintmask 1101110101100100
          133 488 -1 callsubr
          hvcurveto
          hintmask 1101111001100100
          -55 callsubr
          hintmask 1101110110100100
          -73 callsubr
          hintmask 1101110101100100
          -32 hlineto
          -25 -556 10 callsubr
          83 -519 rmoveto
          hintmask 1110110101011000
          -28 callsubr
          hintmask 1101110101100100
          -2 callsubr
          33 -19 31 -34 18 vhcurveto
          hintmask 1110110101011000
          -27 callgsubr
          hintmask 1101110101100100
          -35 callgsubr
        </CharString>
        <CharString name="threequarters">
          74 callsubr
          55 105 56 99 55 hstemhm
          44 34 callgsubr
          366 63 hintmask 1001110101100000
          139 488 -1 callsubr
          hvcurveto
          hintmask 1001111001100000
          -55 callsubr
          hintmask 1001110110100000
          -73 callsubr
          hintmask 0101110101100000
          -32 hlineto
          -31 -556 10 callsubr
          hintmask 1001110101100000
          15 -698 rmoveto
          63 hlineto
          hintmask 0011110101100000
          82 45 vlineto
          hintmask 1001110101100000
          23 callsubr
          hintmask 0011110101100000
          69 callgsubr
        </CharString>
        <CharString name="tilde">
          -350 619 6 callgsubr
          3 -25 callsubr
          hintmask 01110000
          330 51 callgsubr
          hintmask 10110000
          -83 callsubr
          hintmask 01110000
          -72 callsubr
          hintmask 10110000
          -58 callsubr
          hintmask 01110000
          -57 callgsubr
          endchar
        </CharString>
        <CharString name="trademark">
          317 282 89 253 63 hstem
          222 67 196 61 297 67 vstem
          222 283 rmoveto
          67 341 141 63 -350 -63 142 hlineto
          621 -342 rmoveto
          67 405 -104 hlineto
          -105 -316 rlineto
          -5 hlineto
          -105 316 rlineto
          -106 -405 61 329 5 hlineto
          111 -329 rlineto
          64 hlineto
          112 329 rlineto
          5 hlineto
          endchar
        </CharString>
        <CharString name="two">
          0 84 538 76 hstem
          47 91 277 91 vstem
          39 hmoveto
          471 84 -368 hlineto
          5 11 7 12 11 12 rrcurveto
          96 111 245 95 173 vvcurveto
          141 -96 59 -122 -129 -112 -61 -147 -24 3 -16 0 vhcurveto
          88 41 hlineto
          71 38 60 107 108 24 -66 -50 vhcurveto
          -183 -376 -73 -221 vvcurveto
          endchar
        </CharString>
        <CharString name="u">
          -42 callgsubr
          hstemhm
          64 75 callgsubr
          hintmask 01111000
          422 hmoveto
          -64 callgsubr
          hintmask 10111000
          -104 callgsubr
          endchar
        </CharString>
        <CharString name="uacute">
          -19 callsubr
          239 -84 callsubr
          hintmask 01111100
          97 87 callsubr
          hintmask 10111100
          -104 callgsubr
          endchar
        </CharString>
        <CharString name="ubreve">
          -42 callgsubr
          100 64 -64 117 -23 callgsubr
          hintmask 10101110
          422 58 callgsubr
          hintmask 10110110
          -57 callsubr
          hintmask 10101110
          -98 callgsubr
          hintmask 01101110
          -723 vmoveto
          -64 callgsubr
          hintmask 10101110
          -104 callgsubr
          endchar
        </CharString>
        <CharString name="ucircumflex">
          -42 callgsubr
          82 135 -56 56 -23 callgsubr
          hintmask 10110110
          334 588 -105 callsubr
          hintmask 01101110
          -29 callgsubr
          145 -667 rmoveto
          -64 callgsubr
          hintmask 10110110
          -104 callgsubr
          endchar
        </CharString>
        <CharString name="udieresis">
          -42 callgsubr
          122 95 hstemhm
          64 88 -12 87 100 87 -13 88 hintmask 00000000
          hintmask 10110110
          140 -51 callgsubr
          hintmask 01111001
          95 87 callsubr
          hintmask 10111001
          -104 callgsubr
          endchar
        </CharString>
        <CharString name="ugrave">
          -19 callsubr
          239 -45 callsubr
          hintmask 01111100
          291 -720 rmoveto
          -64 callgsubr
          hintmask 10111100
          -104 callgsubr
          endchar
        </CharString>
        <CharString name="uhorn">
          -42 callgsubr
          109 108 -23 callgsubr
          -3 120 hintmask 00000000
          hintmask 10111010
          486 723 -25 callgsubr
          hintmask 10111100
          -14 -53 -46 -27 -75 -9 rrcurveto
          -3 -311 hlineto
          -104 callgsubr
          hintmask 01111100
          34 callsubr
          hintmask 10111010
          15 callsubr
          endchar
        </CharString>
        <CharString name="uhungarumlaut">
          -19 callsubr
          169 591 -60 callgsubr
          hintmask 01111100
          52 87 callsubr
          hintmask 10111100
          -104 callgsubr
          endchar
        </CharString>
        <CharString name="umacron">
          -42 callgsubr
          121 72 -23 callgsubr
          hintmask 10111100
          124 627 -53 callsubr
          hintmask 01111100
          298 -699 rmoveto
          -64 callgsubr
          hintmask 10111100
          -104 callgsubr
          endchar
        </CharString>
        <CharString name="underscore">
          -124 53 hstem
          0 556 vstem
          -124 vmoveto
          556 53 -556 hlineto
          endchar
        </CharString>
        <CharString name="underscoredbl">
          -131 -217 53 40 53 hstem
          0 551 vstem
          -124 vmoveto
          551 53 -551 hlineto
          -146 vmoveto
          551 53 -551 hlineto
          endchar
        </CharString>
        <CharString name="uni00A0">
          -405 endchar
        </CharString>
        <CharString name="uni00AD">
          38 callgsubr
        </CharString>
        <CharString name="uni00B2">
          -350 335 56 252 56 hstemhm
          41 71 callgsubr
          hintmask 00000000
          hintmask 11100000
          41 335 25 callsubr
          hintmask 11011000
          -42 callsubr
          hintmask 11100000
          -50 -37 -53 -38 -62 vvcurveto
          endchar
        </CharString>
        <CharString name="uni00B3">
          -350 328 55 105 56 99 55 hstemhm
          38 34 callgsubr
          hintmask 11101010
          133 488 -1 callsubr
          hvcurveto
          hintmask 11110010
          -55 callsubr
          hintmask 11101100
          -73 callsubr
          hintmask 11101010
          -32 hlineto
          endchar
        </CharString>
        <CharString name="uni00B5">
          -41 callgsubr
        </CharString>
        <CharString name="uni00B9">
          -350 328 56 225 40 -40 77 hstemhm
          139 63 hintmask 10110000
          51 328 rmoveto
          231 56 -80 302 -30 hlineto
          hintmask 11010000
          47 callsubr
          hintmask 10110000
          64 callgsubr
          endchar
        </CharString>
        <CharString name="uni0162">
          -72 62 callsubr
          57 -21 603 83 hstemhm
          258 95 -4 72 hintmask 10111100
          353 hmoveto
          9 callgsubr
          -603 15 vlineto
          -14 -77 rlineto
          hintmask 10111010
          -41 callsubr
          hintmask 01111100
          -49 vlineto
          hintmask 10111010
          -44 callsubr
          hintmask 10111100
          6 36 rlineto
          endchar
        </CharString>
        <CharString name="uni0163">
          -405 62 callsubr
          25 85 callgsubr
          23 72 hintmask 00000000
          hintmask 10111100
          173 -36 rmoveto
          hintmask 10011100
          4 25 rlineto
          9 hlineto
          24 32 6 8 17 hvcurveto
          58 -45 vlineto
          -30 -14 16 31 hvcurveto
          345 89 73 -89 146 -68 vlineto
          -19 -146 rlineto
          -65 -73 64 -353 hlineto
          hintmask 10111100
          -34 10 -35 27 -21 vhcurveto
          hintmask 10111110
          -16 -87 rlineto
          -41 callsubr
          hintmask 01011100
          -49 vlineto
          hintmask 10011110
          -5 27 36 -3 32 hhcurveto
          47 71 14 67 hvcurveto
          hintmask 10111100
          46 -43 16 -49 3 vhcurveto
          endchar
        </CharString>
        <CharString name="uni018F">
          75 -12 81 214 88 246 81 hstem
          47 98 465 98 vstem
          610 371 rmoveto
          -563 -62 hlineto
          -230 117 -91 208 228 108 109 241 247 -113 113 -224 -191 -133 -82 -162 vhcurveto
          91 hlineto
          119 103 44 120 159 80 -78 -168 10 vhcurveto
          -465 -88 rmoveto
          462 hlineto
          -154 -16 -69 -60 -142 hhcurveto
          -141 -94 59 155 hvcurveto
          endchar
        </CharString>
        <CharString name="uni019D">
          39 33 callgsubr
          686 -20 hstemhm
          64 callsubr
          hintmask 10111100
          554 686 rmoveto
          -509 vlineto
          73 callgsubr
          510 rlineto
          -85 -751 hlineto
          -31 -16 -17 -31 vhcurveto
          -43 hlineto
          hintmask 01111100
          -57 vlineto
          hintmask 10111100
          -6 17 28 -6 24 hhcurveto
          85 25 61 60 hvcurveto
          579 vlineto
          4 1 390 -519 rlineto
          81 686 hlineto
          endchar
        </CharString>
        <CharString name="uni01C4">
          650 0 83 520 83 47 135 -4 callgsubr
          404 98 vstem
          986 733 -100 callsubr
          -801 -868 rmoveto
          -46 callsubr
        </CharString>
        <CharString name="uni01C5">
          539 0 73 -73 83 370 73 62 135 -120 83 hstemhm
          79 95 404 98 hintmask 00000000
          hintmask 10110110
          930 588 -100 callsubr
          -745 -723 rmoveto
          -38 callgsubr
          hvcurveto
          hintmask 01101110
          -6 callgsubr
          vhcurveto
          -254 hlineto
          254 -603 -71 callsubr
          hintmask 10101110
          413 -83 rmoveto
          -88 callgsubr
          endchar
        </CharString>
        <CharString name="uni01C6">
          373 -12 73 -61 73 380 73 -61 73 50 135 hstemhm
          35 91 275 88 hintmask 01101110
          423 hmoveto
          66 723 -88 hlineto
          hintmask 10011110
          -257 -24 callsubr
          352 517 -100 callsubr
          hintmask 01101110
          -78 -723 rmoveto
          -88 callgsubr
          hintmask 10011110
          -315 14 -39 callsubr
        </CharString>
        <CharString name="uni01C7">
          373 -12 81 -69 83 603 -20 hstemhm
          79 95 411 95 203 95 hintmask 01111100
          0 callgsubr
          804 hmoveto
          -492 vlineto
          hintmask 10111100
          -79 callsubr
        </CharString>
        <CharString name="uni01C8">
          95 1 callgsubr
          113 83 443 -20 119 98 -37 -20 hstemhm
          79 95 449 88 hintmask 10111011
          623 3 callgsubr
          -544 -723 rmoveto
          447 83 -352 hlineto
          hintmask 10110111
          603 -95 vlineto
          453 -799 rmoveto
          hintmask 01111011
          -57 vlineto
          hintmask 10111011
          -85 callsubr
        </CharString>
        <CharString name="uni01C9">
          -239 20 callgsubr
          119 98 hstemhm
          67 88 134 88 hintmask 10111110
          67 hmoveto
          88 723 -88 hlineto
          222 -98 rmoveto
          88 98 -88 hlineto
          -91 -836 rmoveto
          hintmask 01111110
          -57 vlineto
          hintmask 10111110
          -85 callsubr
        </CharString>
        <CharString name="uni01CA">
          539 -12 81 -48 -9 callsubr
          hstemhm
          64 callsubr
          108 95 203 95 hintmask 00000000
          hintmask 01111110
          19 callgsubr
          877 167 rmoveto
          -492 vlineto
          hintmask 10111110
          -79 callsubr
        </CharString>
        <CharString name="uni01CB">
          261 20 callgsubr
          119 98 -37 -20 hstemhm
          64 callsubr
          146 88 hintmask 1011101110000000
          789 3 callgsubr
          -227 -723 rmoveto
          81 hlineto
          hintmask 1011011110000000
          52 callgsubr
          vlineto
          73 callgsubr
          510 rlineto
          -85 -686 89 518 hlineto
          4 1 rlineto
          526 -632 rmoveto
          hintmask 0111101110000000
          -57 vlineto
          hintmask 1011101110000000
          -85 callsubr
        </CharString>
        <CharString name="uni01CC">
          95 33 callgsubr
          465 73 -12 -20 119 98 42 callgsubr
          131 88 hintmask 1011011110000000
          623 3 callgsubr
          -219 -723 rmoveto
          -67 callgsubr
          hintmask 1010111110000000
          -53 callgsubr
          hintmask 1011011110000000
          -64 callsubr
          128 -466 rmoveto
          hintmask 0111011110000000
          -57 vlineto
          hintmask 1010111110000000
          -85 callsubr
        </CharString>
        <CharString name="uni01CD">
          -76 callgsubr
          47 135 hstem
          7 653 vstem
          292 733 -100 callsubr
          373 -74 callsubr
        </CharString>
        <CharString name="uni01CE">
          -75 callsubr
          50 135 57 callgsubr
          236 588 -100 callsubr
          419 -719 -103 callsubr
        </CharString>
        <CharString name="uni01CF">
          -7 callgsubr
          67 135 hstem
          92 95 vstem
          97 733 -100 callsubr
          101 15 callgsubr
        </CharString>
        <CharString name="uni01D0">
          -8 callsubr
          82 135 hstem
          95 88 vstem
          97 588 -100 callsubr
          104 -723 -23 callsubr
        </CharString>
        <CharString name="uni01D1">
          -52 callgsubr
          35 135 -28 callgsubr
          347 733 -100 callsubr
          148 -880 rmoveto
          -107 callgsubr
          endchar
        </CharString>
        <CharString name="uni01D2">
          -56 callgsubr
          50 135 77 callgsubr
          vstem
          236 588 -100 callsubr
          148 -735 rmoveto
          -106 callsubr
          endchar
        </CharString>
        <CharString name="uni01D3">
          -38 callsubr
          67 135 21 callsubr
          319 733 -100 callsubr
          335 -182 rmoveto
          -438 vlineto
          -105 callgsubr
          433 vlineto
          endchar
        </CharString>
        <CharString name="uni01D4">
          -42 callgsubr
          82 135 -23 callgsubr
          hintmask 10111100
          235 588 -100 callsubr
          hintmask 01111100
          293 87 callsubr
          hintmask 10111100
          -104 callgsubr
          endchar
        </CharString>
        <CharString name="uni01D5">
          -38 callsubr
          107 95 71 72 9 callsubr
          208 939 -53 callsubr
          16 -238 -92 callsubr
          137 -182 rmoveto
          -438 vlineto
          -105 callgsubr
          433 vlineto
          endchar
        </CharString>
        <CharString name="uni01D6">
          -42 callgsubr
          122 95 71 72 11 callsubr
          124 794 -53 callsubr
          hintmask 1011101100000000
          16 -238 -92 callsubr
          hintmask 0111110010000000
          95 87 callsubr
          hintmask 1011110010000000
          -104 callgsubr
          endchar
        </CharString>
        <CharString name="uni01D7">
          -38 callsubr
          107 95 35 132 9 callsubr
          323 903 -97 callsubr
          -185 -262 -92 callsubr
          137 -182 rmoveto
          -438 vlineto
          -105 callgsubr
          433 vlineto
          endchar
        </CharString>
        <CharString name="uni01D8">
          -42 callgsubr
          122 95 35 132 11 callsubr
          239 758 -97 callsubr
          hintmask 1011101100000000
          -185 -262 -92 callsubr
          hintmask 0111110010000000
          95 87 callsubr
          hintmask 1011110010000000
          -104 callgsubr
          endchar
        </CharString>
        <CharString name="uni01D9">
          -38 callsubr
          107 95 32 135 9 callsubr
          319 900 -100 callsubr
          11 -262 -92 callsubr
          137 -182 rmoveto
          -438 vlineto
          -105 callgsubr
          433 vlineto
          endchar
        </CharString>
        <CharString name="uni01DA">
          -42 callgsubr
          122 95 32 135 11 callsubr
          235 755 -100 callsubr
          hintmask 1011101100000000
          11 -262 -92 callsubr
          hintmask 0111110010000000
          95 87 callsubr
          hintmask 1011110010000000
          -104 callgsubr
          endchar
        </CharString>
        <CharString name="uni01DB">
          -38 callsubr
          107 95 35 132 9 callsubr
          323 903 -87 callsubr
          9 -259 -92 callsubr
          137 -182 rmoveto
          -438 vlineto
          -105 callgsubr
          433 vlineto
          endchar
        </CharString>
        <CharString name="uni01DC">
          -42 callgsubr
          122 95 35 132 11 callsubr
          239 758 -87 callsubr
          hintmask 1011101100000000
          9 -259 -92 callsubr
          hintmask 0111110010000000
          95 87 callsubr
          hintmask 1011110010000000
          -104 callgsubr
          endchar
        </CharString>
        <CharString name="uni01EA">
          95 -182 65 105 -50 callsubr
          hstem
          47 98 268 78 143 98 vstem
          529 8 rmoveto
          1 vlineto
          129 43 74 111 180 vvcurveto
          238 -129 117 -214 -214 -128 -30 callsubr
          128 -117 214 20 20 1 2 19 vhcurveto
          -20 -21 -15 -26 -36 0 callsubr
          51 -32 vlineto
          -39 -14 27 28 28 23 28 15 14 hvcurveto
          -384 335 rmoveto
          198 93 76 151 152 93 -76 -198 -198 -93 -76 -152 -151 -93 76 198 vhcurveto
          endchar
        </CharString>
        <CharString name="uni01EB">
          -182 65 105 -40 callsubr
          hstem
          35 91 150 78 76 91 vstem
          392 8 rmoveto
          85 35 44 83 137 vvcurveto
          189 -84 86 -159 -159 -84 -78 callgsubr
          84 -86 159 11 10 0 1 10 vhcurveto
          -19 -21 -14 -25 -35 0 callsubr
          51 -32 vlineto
          -39 -14 27 28 28 23 28 15 14 hvcurveto
          -266 255 rmoveto
          143 46 59 106 106 46 -59 -143 -143 -46 -59 -106 -106 -46 59 143 vhcurveto
          endchar
        </CharString>
        <CharString name="uni01F1">
          650 0 83 520 83 hstem
          79 95 404 98 vstem
          79 hmoveto
          -46 callsubr
        </CharString>
        <CharString name="uni01F2">
          539 0 73 -73 83 370 73 77 83 hstemhm
          79 95 404 98 hintmask 10111100
          79 hmoveto
          -2 callgsubr
          hlineto
          hintmask 01111100
          254 -603 -71 callsubr
          hintmask 10111100
          413 -83 rmoveto
          -88 callgsubr
          endchar
        </CharString>
        <CharString name="uni01F3">
          373 -12 73 -61 73 380 73 -61 73 185 -20 hstemhm
          35 91 275 88 hintmask 01101110
          423 hmoveto
          66 723 -88 hlineto
          hintmask 10011110
          -257 -24 callsubr
          hintmask 01101110
          168 -71 rmoveto
          -88 callgsubr
          hintmask 10011110
          -315 14 -39 callsubr
        </CharString>
        <CharString name="uni01F4">
          -27 callsubr
          38 132 53 callsubr
          351 -79 callgsubr
          hintmask 01111110
          196 68 callsubr
          hintmask 10111110
          -99 callsubr
          endchar
        </CharString>
        <CharString name="uni01F5">
          -36 callgsubr
          53 132 -8 callgsubr
          hintmask 1111100110000000
          -11 callgsubr
          hintmask 1111110001000000
          -165 -86 callgsubr
        </CharString>
        <CharString name="uni0200">
          -76 callgsubr
          50 132 hstem
          7 653 vstem
          317 736 -94 callgsubr
          179 -736 -103 callgsubr
        </CharString>
        <CharString name="uni0201">
          -12 callgsubr
          261 591 -94 callgsubr
          225 -587 -103 callsubr
        </CharString>
        <CharString name="uni0202">
          -76 callgsubr
          118 64 hstem
          7 653 vstem
          479 751 -93 callgsubr
          141 -751 -103 callgsubr
        </CharString>
        <CharString name="uni0203">
          -75 callsubr
          121 64 57 callgsubr
          423 606 -93 callgsubr
          187 -602 -103 callsubr
        </CharString>
        <CharString name="uni0204">
          -69 callgsubr
          50 132 -4 callgsubr
          vstem
          317 736 -94 callgsubr
          -301 -736 rmoveto
          -95 callgsubr
          endchar
        </CharString>
        <CharString name="uni0205">
          -50 callgsubr
          53 132 hstem
          43 callgsubr
          vstem
          261 591 -94 callgsubr
          -194 -352 rmoveto
          -107 callsubr
          endchar
        </CharString>
        <CharString name="uni0206">
          -69 callgsubr
          118 64 -4 callgsubr
          vstem
          479 751 -93 callgsubr
          -339 -751 rmoveto
          -95 callgsubr
          endchar
        </CharString>
        <CharString name="uni0207">
          -50 callgsubr
          121 64 hstem
          43 callgsubr
          vstem
          423 606 -93 callgsubr
          -232 -367 rmoveto
          -107 callsubr
          endchar
        </CharString>
        <CharString name="uni0208">
          -405 -9 callgsubr
          92 95 vstem
          122 736 -94 callgsubr
          -93 -736 -22 callgsubr
        </CharString>
        <CharString name="uni0209">
          -405 21 -7 callsubr
          hstem
          95 88 vstem
          122 591 -94 callgsubr
          -90 -591 -23 callsubr
        </CharString>
        <CharString name="uni020A">
          -7 callgsubr
          138 64 hstem
          92 95 vstem
          284 751 -93 callgsubr
          -131 -751 -22 callgsubr
        </CharString>
        <CharString name="uni020B">
          -8 callsubr
          153 64 hstem
          95 88 vstem
          284 606 -93 callgsubr
          -128 -606 -23 callsubr
        </CharString>
        <CharString name="uni020C">
          -31 callgsubr
          372 736 -94 callgsubr
          -46 -748 rmoveto
          -107 callgsubr
          endchar
        </CharString>
        <CharString name="uni020D">
          -26 callgsubr
          304 91 vstem
          261 591 -94 callgsubr
          -46 -603 rmoveto
          -106 callsubr
          endchar
        </CharString>
        <CharString name="uni020E">
          -52 callgsubr
          106 64 -28 callgsubr
          534 751 -93 callgsubr
          -84 -763 rmoveto
          -107 callgsubr
          endchar
        </CharString>
        <CharString name="uni020F">
          -56 callgsubr
          121 64 77 callgsubr
          vstem
          423 606 -93 callgsubr
          -84 -618 rmoveto
          -106 callsubr
          endchar
        </CharString>
        <CharString name="uni0210">
          20 callsubr
          50 132 -4 callgsubr
          379 96 vstem
          344 736 -94 callgsubr
          -328 -736 rmoveto
          -95 callsubr
          endchar
        </CharString>
        <CharString name="uni0211">
          -1 callgsubr
          81 132 hstemhm
          67 88 hintmask 11001100
          150 591 -94 callgsubr
          -146 -591 -69 callsubr
        </CharString>
        <CharString name="uni0212">
          20 callsubr
          118 64 -4 callgsubr
          379 96 vstem
          506 751 -93 callgsubr
          -366 -751 rmoveto
          -95 callsubr
          endchar
        </CharString>
        <CharString name="uni0213">
          -1 callgsubr
          149 64 hstemhm
          67 88 hintmask 11001100
          312 606 -93 callgsubr
          -184 -606 -69 callsubr
        </CharString>
        <CharString name="uni0214">
          60 callgsubr
          344 736 -94 callgsubr
          141 -50 rmoveto
          -438 vlineto
          -105 callgsubr
          433 vlineto
          endchar
        </CharString>
        <CharString name="uni0215">
          -19 callsubr
          260 591 -94 callgsubr
          hintmask 01111100
          99 -591 rmoveto
          -64 callgsubr
          hintmask 10111100
          -104 callgsubr
          endchar
        </CharString>
        <CharString name="uni0216">
          -38 callsubr
          138 64 21 callsubr
          506 751 -93 callgsubr
          103 -65 rmoveto
          -438 vlineto
          -105 callgsubr
          433 vlineto
          endchar
        </CharString>
        <CharString name="uni0217">
          -42 callgsubr
          153 64 -23 callgsubr
          hintmask 10111100
          422 606 -93 callgsubr
          hintmask 01111100
          61 -606 rmoveto
          -64 callgsubr
          hintmask 10111100
          -104 callgsubr
          endchar
        </CharString>
        <CharString name="uni021A">
          -72 65 callgsubr
          603 83 hstemhm
          258 95 -91 88 hintmask 11110000
          19 callsubr
          hintmask 11101000
          4 -833 rmoveto
          -71 callgsubr
        </CharString>
        <CharString name="uni021B">
          -405 -149 91 47 85 callgsubr
          -64 88 hintmask 11110000
          259 3 -68 callgsubr
          hintmask 11101000
          -153 -233 rmoveto
          -71 callgsubr
        </CharString>
        <CharString name="uni0232">
          41 callsubr
          106 72 hstem
          287 95 vstem
          181 772 -53 callsubr
          106 -844 rmoveto
          -91 callsubr
          endchar
        </CharString>
        <CharString name="uni0232.loclGUA">
          -10 callsubr
          106 72 -4 callgsubr
          319 95 vstem
          181 772 -53 callsubr
          305 -550 -99 callgsubr
        </CharString>
        <CharString name="uni0233">
          -30 callgsubr
          121 72 hstemhm
          13 474 hintmask 10111000
          97 627 -53 callsubr
          -50 -816 rmoveto
          hintmask 01111000
          -57 vlineto
          hintmask 10111000
          -100 callgsubr
          endchar
        </CharString>
        <CharString name="uni0233.loclGUA">
          -10 callgsubr
          121 72 hstem
          64 1 callsubr
          vstem
          125 627 -53 callsubr
          141 -881 rmoveto
          -96 callsubr
          -100 88 -47 112 vhcurveto
          endchar
        </CharString>
        <CharString name="uni0237">
          -461 1 callgsubr
          639 -20 hstemhm
          67 88 hintmask 10110000
          -24 -113 81 callgsubr
          -85 callsubr
        </CharString>
        <CharString name="uni0259">
          -12 -5 callgsubr
          178 73 hstem
          39 92 293 93 vstem
          426 287 rmoveto
          -387 -44 hlineto
          -184 79 -71 150 166 83 87 188 186 -82 89 -162 -137 -97 -63 -128 vhcurveto
          86 hlineto
          85 64 33 79 99 53 -53 -125 6 vhcurveto
          -295 -73 rmoveto
          293 hlineto
          -109 -10 -53 -44 -90 hhcurveto
          -86 -54 40 113 hvcurveto
          endchar
        </CharString>
        <CharString name="uni0272">
          33 callgsubr
          465 73 -12 -20 42 callgsubr
          hintmask 10110110
          328 538 rmoveto
          -72 -64 -24 -59 -41 hvcurveto
          -7 hlineto
          hintmask 10101110
          -10 71 rlineto
          -67 -591 hlineto
          -31 -16 -17 -31 vhcurveto
          -44 hlineto
          hintmask 01110110
          -57 vlineto
          hintmask 10110110
          -6 17 28 -6 24 hhcurveto
          85 25 61 60 hvcurveto
          372 vlineto
          -64 callsubr
          -353 88 359 vlineto
          131 -64 48 -100 vhcurveto
          endchar
        </CharString>
        <CharString name="uni02BC">
          -482 490 196 -91 91 hstemhm
          58 85 hintmask 00000000
          hintmask 10100000
          58 490 rmoveto
          44 hlineto
          hintmask 01100000
          2 callsubr
          endchar
        </CharString>
        <CharString name="uni02C9">
          38 callsubr
        </CharString>
        <CharString name="uni030F">
          -683 591 132 hstem
          -306 299 vstem
          -146 591 -94 callgsubr
          endchar
        </CharString>
        <CharString name="uni0311">
          -683 659 64 hstem
          -312 291 vstem
          -21 606 -93 callgsubr
          endchar
        </CharString>
        <CharString name="uni031B">
          -683 578 108 hstem
          -212 120 vstem
          -212 686 -25 callgsubr
          -14 -53 -46 -27 -75 -9 rrcurveto
          -56 vlineto
          134 16 68 71 112 vvcurveto
          54 vlineto
          endchar
        </CharString>
        <CharString name="uni0326">
          -683 -149 91 hstem
          -155 88 vstem
          -155 -230 rmoveto
          -71 callgsubr
        </CharString>
        <CharString name="uni1E0C">
          39 3 callsubr
          78 83 520 83 -4 callgsubr
          143 87 174 98 vstem
          79 hmoveto
          -2 callgsubr
          hlineto
          254 -603 -71 callsubr
          -16 -256 -94 callsubr
          endchar
        </CharString>
        <CharString name="uni1E0D">
          55 callsubr
          73 -40 48 callgsubr
          hstemhm
          35 91 108 87 80 88 hintmask 00000000
          hintmask 10111111
          423 hmoveto
          66 723 -88 -257 -6 hlineto
          -21 callgsubr
          hvcurveto
          hintmask 11011111
          -3 callgsubr
          -31 -234 -94 callsubr
          endchar
        </CharString>
        <CharString name="uni1E24">
          39 72 callsubr
          309 83 294 -20 -4 callgsubr
          143 87 144 95 vstem
          548 hmoveto
          5 callgsubr
          -231 -482 -94 callsubr
          endchar
        </CharString>
        <CharString name="uni1E25">
          -173 95 99 48 callgsubr
          hstem
          67 88 79 87 83 88 vstem
          404 hmoveto
          -11 callsubr
          256 -88 -723 88 311 hlineto
          -64 callsubr
          -170 -526 -94 callsubr
          endchar
        </CharString>
        <CharString name="uni1E44">
          76 callgsubr
          107 95 hstem
          79 89 149 87 150 89 vstem
          317 35 callgsubr
          245 -868 rmoveto
          -83 callgsubr
          endchar
        </CharString>
        <CharString name="uni1E45">
          22 callgsubr
          122 95 hstemhm
          67 88 79 87 83 88 hintmask 11011110
          234 21 callgsubr
          170 -723 rmoveto
          -67 callgsubr
          hintmask 10111110
          -53 callgsubr
          hintmask 11011110
          -64 callsubr
          endchar
        </CharString>
        <CharString name="uni1E5A">
          39 -173 95 99 50 callsubr
          -4 callgsubr
          143 87 149 -33 callgsubr
          -539 -94 callsubr
          endchar
        </CharString>
        <CharString name="uni1E5B">
          -350 -173 95 99 -20 callsubr
          -699 vmoveto
          87 95 -87 hlineto
          endchar
        </CharString>
        <CharString name="uni1E62">
          -16 55 callsubr
          -50 callsubr
          hstemhm
          49 93 -76 96 128 87 126 -66 callsubr
          -681 -94 callsubr
          endchar
        </CharString>
        <CharString name="uni1E63">
          -183 55 callsubr
          89 callsubr
          87 68 -61 callgsubr
          -557 -94 callsubr
          endchar
        </CharString>
        <CharString name="uni1E6C">
          -72 72 callsubr
          603 83 hstemhm
          258 95 -91 87 hintmask 11110000
          19 callsubr
          hintmask 11101000
          4 -776 -94 callsubr
          endchar
        </CharString>
        <CharString name="uni1E6D">
          -405 3 callsubr
          67 85 callgsubr
          -64 87 hintmask 11110000
          259 3 -68 callgsubr
          hintmask 11101000
          -153 -176 -94 callsubr
          endchar
        </CharString>
        <CharString name="uni1E92">
          -72 3 callsubr
          78 83 520 83 hstem
          262 87 vstem
          23 hmoveto
          -81 callgsubr
          239 -222 -94 callsubr
          endchar
        </CharString>
        <CharString name="uni1E93">
          -183 3 callsubr
          78 73 380 73 hstem
          206 87 vstem
          24 hmoveto
          -88 callgsubr
          182 -220 -94 callsubr
          endchar
        </CharString>
        <CharString name="uni1E9E">
          85 0 83 215 83 236 81 hstemhm
          79 95 404 97 -63 97 hintmask 11111000
          79 hmoveto
          95 414 hlineto
          138 84 65 143 124 53 -49 -74 -68 -45 -45 -63 vhcurveto
          -186 -83 189 hlineto
          hintmask 11110100
          88 51 -44 -62 -55 -41 -54 -78 hvcurveto
          -209 -83 222 hlineto
          127 76 82 105 84 -48 56 -77 20 hvcurveto
          4 vlineto
          hintmask 11111000
          50 20 41 60 72 vvcurveto
          118 -111 77 -172 -188 -125 -93 -184 vhcurveto
          endchar
        </CharString>
</ttFont>
